<svg width="193" height="80" viewBox="0 0 193 80" fill="none" xmlns="http://www.w3.org/2000/svg">
<path d="M45.4723 67.6663C31.8612 67.6663 20.5279 57.7913 18.2223 44.833H14.9307C17.264 59.583 30.0696 70.9025 45.4723 70.9025C54.0001 70.9025 61.7223 67.4302 67.3196 61.833L65.0279 59.5413C60.0279 64.5691 53.1112 67.6663 45.4723 67.6663Z" fill="url(#paint0_linear_252_293)"/>
<path d="M50.3193 60.6106V63.9439C55.111 62.9717 59.4027 60.5967 62.736 57.2633L60.4443 54.9717C57.7082 57.7078 54.2221 59.6939 50.3193 60.6106Z" fill="url(#paint1_linear_252_293)"/>
<path d="M45.4718 15.583C44.9302 15.583 44.3885 15.5969 43.8468 15.6386V18.8886V22.1525C34.7218 22.9719 27.5552 30.6525 27.5552 39.9997C27.5552 48.208 33.0968 55.1386 40.6385 57.2636V53.8608C34.9163 51.8608 30.8052 46.4025 30.8052 39.9997C30.8052 31.9025 37.3885 25.3191 45.4857 25.3191C46.0274 25.3191 46.5691 25.3469 47.0968 25.4025V24.4441V22.1386V18.8886C52.3885 19.2913 57.1524 21.6525 60.6524 25.2358L62.9441 22.9441C58.4996 18.4025 52.3191 15.583 45.4718 15.583Z" fill="url(#paint2_linear_252_293)"/>
<path d="M40.6248 16.0693C31.0415 18.0138 23.4859 25.5693 21.5415 35.1666H24.8609C26.6943 27.3888 32.8332 21.236 40.6248 19.4027V16.0693Z" fill="url(#paint3_linear_252_293)"/>
<path d="M56.0554 29.8333L58.3471 27.5417C56.1666 25.2917 53.4166 23.625 50.3193 22.75V26.1528C52.5138 26.9167 54.4721 28.1806 56.0554 29.8333Z" fill="url(#paint4_linear_252_293)"/>
<path d="M15.5691 41.6108H17.8468H19.9857H21.1107C21.9441 54.333 32.5552 64.4163 45.4718 64.4163C46.0135 64.4163 46.5552 64.4025 47.083 64.3608V62.3608V61.1108V57.8469C51.3746 57.458 55.2496 55.5552 58.1385 52.6664L55.8468 50.3747C53.1941 53.0275 49.5274 54.6802 45.4718 54.6802C44.9302 54.6802 44.3885 54.6525 43.8607 54.5969V55.2358V57.8469V61.1108C32.9441 60.2775 24.3052 51.1247 24.3052 39.9997C24.3052 39.458 24.3191 38.9163 24.3607 38.3886H22.6941H21.1107H17.8468C18.6802 23.8747 30.7496 12.333 45.4718 12.333C53.208 12.333 60.208 15.5275 65.2357 20.6525L67.5274 18.3608C61.9163 12.6386 54.1107 9.08301 45.4718 9.08301C28.4302 9.08301 14.5552 22.958 14.5552 39.9997C14.5552 40.5413 14.5691 41.083 14.5968 41.6108H15.5691Z" fill="url(#paint5_linear_252_293)"/>
<path d="M49.0828 42.138V42.2214C49.0828 44.6797 47.4439 45.9991 44.8467 45.9991C42.2495 45.9991 40.5967 44.6241 40.5967 42.0686V38.7214C40.5967 36.1658 42.2495 34.8047 44.8745 34.8047C47.4439 34.8047 49.0828 36.1241 49.0828 38.5825V38.638H47.2356V38.5825C47.2356 37.1797 46.3328 36.4019 44.8883 36.4019C43.3745 36.4019 42.4578 37.2214 42.4578 38.7214V42.0686C42.4578 43.5825 43.3745 44.388 44.8606 44.388C46.3467 44.388 47.2356 43.6241 47.2356 42.2214V42.138H49.0828Z" fill="white"/>
<path d="M53.9443 34.9434H58.4304C60.611 34.9434 62.0416 35.985 62.0416 38.4434C62.0416 40.2211 61.3054 41.2628 60.0832 41.7072L62.1527 45.8322H60.0138L58.1527 41.9572H55.8054V45.8322H53.9582V34.9434H53.9443ZM55.7916 40.36H58.361C59.4304 40.36 60.1249 39.8322 60.1249 38.4434C60.1249 37.0545 59.4443 36.5406 58.361 36.5406H55.7916V40.36Z" fill="white"/>
<path d="M71.597 45.8469H69.7498V41.8469L65.7637 34.958H67.972L70.6942 39.9858L73.4859 34.958H75.5692L71.597 41.8469V45.8469Z" fill="white"/>
<path d="M79.6108 34.9434H83.9025C86.0831 34.9434 87.4997 35.985 87.4997 38.4434C87.4997 40.9017 86.0969 41.9572 83.9025 41.9572H81.4581V45.8322H79.6108V34.9434ZM81.4719 40.36H83.847C84.9164 40.36 85.6108 39.8322 85.6108 38.4434C85.6108 37.0545 84.9164 36.5406 83.847 36.5406H81.4719V40.36Z" fill="white"/>
<path d="M91.1387 34.9434H99.6526V36.5406H96.3192V45.8322H94.472V36.5406H91.1387V34.9434Z" fill="white"/>
<path d="M112.292 42.0549C112.292 44.6243 110.625 45.9855 108 45.9855C105.403 45.9855 103.736 44.6105 103.736 42.0549V38.7077C103.736 36.1521 105.403 34.791 108.028 34.791C110.625 34.791 112.292 36.166 112.292 38.7077V42.0549ZM110.445 38.7216C110.445 37.2216 109.514 36.4021 108.028 36.4021C106.514 36.4021 105.584 37.2216 105.584 38.7216V42.0688C105.584 43.5827 106.514 44.3882 108 44.3882C109.514 44.3882 110.445 43.5827 110.445 42.0688V38.7216Z" fill="white"/>
<path d="M119.125 38.3469V45.8469H117.277V34.958H119L123.819 42.458V34.958H125.666V45.8469H123.944L119.125 38.3469Z" fill="white"/>
<path d="M139.222 42.0549C139.222 44.6243 137.555 45.9855 134.93 45.9855C132.333 45.9855 130.667 44.6105 130.667 42.0549V38.7077C130.667 36.1521 132.333 34.791 134.958 34.791C137.555 34.791 139.222 36.166 139.222 38.7077V42.0549ZM137.375 38.7216C137.375 37.2216 136.444 36.4021 134.958 36.4021C133.444 36.4021 132.514 37.2216 132.514 38.7216V42.0688C132.514 43.5827 133.444 44.3882 134.93 44.3882C136.444 44.3882 137.375 43.5827 137.375 42.0688V38.7216Z" fill="white"/>
<path d="M152 38.5969L149.027 44.1941L146.055 38.5969V45.8469H144.208V34.958H146L149.027 40.6802L152.055 34.958H153.847V45.8469H152V38.5969Z" fill="white"/>
<path d="M158.986 34.9434H160.833V45.8322H158.986V34.9434Z" fill="white"/>
<path d="M174.292 42.138V42.2214C174.292 44.6797 172.653 45.9991 170.056 45.9991C167.458 45.9991 165.806 44.6241 165.806 42.0686V38.7214C165.806 36.1658 167.458 34.8047 170.083 34.8047C172.653 34.8047 174.292 36.1241 174.292 38.5825V38.638H172.445V38.5825C172.445 37.1797 171.542 36.4019 170.097 36.4019C168.583 36.4019 167.667 37.2214 167.667 38.7214V42.0686C167.667 43.5825 168.583 44.388 170.07 44.388C171.556 44.388 172.445 43.6241 172.445 42.2214V42.138H174.292Z" fill="white"/>
<defs>
<linearGradient id="paint0_linear_252_293" x1="60.9559" y1="76.1953" x2="12.6226" y2="31.1953" gradientUnits="userSpaceOnUse">
<stop offset="0.153" stop-color="#FBC80A"/>
<stop offset="0.4709" stop-color="#EB148D"/>
<stop offset="0.9051" stop-color="#6BCBDA"/>
</linearGradient>
<linearGradient id="paint1_linear_252_293" x1="66.7193" y1="70.0046" x2="18.386" y2="25.0046" gradientUnits="userSpaceOnUse">
<stop offset="0.153" stop-color="#FBC80A"/>
<stop offset="0.4709" stop-color="#EB148D"/>
<stop offset="0.9051" stop-color="#6BCBDA"/>
</linearGradient>
<linearGradient id="paint2_linear_252_293" x1="74.0305" y1="62.1517" x2="25.6972" y2="17.1517" gradientUnits="userSpaceOnUse">
<stop offset="0.153" stop-color="#FBC80A"/>
<stop offset="0.4709" stop-color="#EB148D"/>
<stop offset="0.9051" stop-color="#6BCBDA"/>
</linearGradient>
<linearGradient id="paint3_linear_252_293" x1="72.3154" y1="63.9944" x2="23.982" y2="18.9944" gradientUnits="userSpaceOnUse">
<stop offset="0.153" stop-color="#FBC80A"/>
<stop offset="0.4709" stop-color="#EB148D"/>
<stop offset="0.9051" stop-color="#6BCBDA"/>
</linearGradient>
<linearGradient id="paint4_linear_252_293" x1="82.5066" y1="53.0484" x2="34.1732" y2="8.04842" gradientUnits="userSpaceOnUse">
<stop offset="0.153" stop-color="#FBC80A"/>
<stop offset="0.4709" stop-color="#EB148D"/>
<stop offset="0.9051" stop-color="#6BCBDA"/>
</linearGradient>
<linearGradient id="paint5_linear_252_293" x1="74.0336" y1="62.1484" x2="25.7002" y2="17.1484" gradientUnits="userSpaceOnUse">
<stop offset="0.153" stop-color="#FBC80A"/>
<stop offset="0.4709" stop-color="#EB148D"/>
<stop offset="0.9051" stop-color="#6BCBDA"/>
</linearGradient>
</defs>
</svg>
