<svg width="437" height="343" viewBox="0 0 437 343" fill="none" xmlns="http://www.w3.org/2000/svg">
<rect width="437" height="343" fill="url(#paint0_linear_460_2753)"/>
<path d="M86.072 214H76.664V212.208H79.576V193.392H76.664V191.6H86.072V193.392H83.16V212.208H86.072V214ZM108.582 214H100.742V212.4H102.854V204.368C102.854 202.683 102.598 201.371 102.086 200.432C101.574 199.493 100.635 199.024 99.27 199.024C98.6727 199.024 98.118 199.12 97.606 199.312C97.1153 199.504 96.6673 199.76 96.262 200.08C95.878 200.4 95.5367 200.773 95.238 201.2C94.9607 201.627 94.7473 202.075 94.598 202.544V212.4H96.71V214H88.87V212.4H91.238V198.8H88.87V197.2H94.598V200.528H94.63C95.1207 199.504 95.8353 198.64 96.774 197.936C97.734 197.232 98.886 196.88 100.23 196.88C101.19 196.88 102.043 196.987 102.79 197.2C103.537 197.392 104.155 197.755 104.646 198.288C105.158 198.821 105.542 199.536 105.798 200.432C106.075 201.328 106.214 202.469 106.214 203.856V212.4H108.582V214ZM119.812 210.192C119.812 209.616 119.598 209.115 119.172 208.688C118.745 208.24 118.212 207.835 117.572 207.472C116.932 207.088 116.238 206.715 115.492 206.352C114.745 205.968 114.052 205.541 113.411 205.072C112.772 204.581 112.238 204.016 111.812 203.376C111.385 202.715 111.172 201.925 111.172 201.008C111.172 200.389 111.321 199.835 111.62 199.344C111.918 198.832 112.313 198.395 112.804 198.032C113.316 197.669 113.913 197.392 114.596 197.2C115.278 196.987 116.004 196.88 116.772 196.88C117.412 196.88 117.977 196.901 118.468 196.944C118.958 196.987 119.406 197.051 119.812 197.136C120.217 197.2 120.601 197.285 120.964 197.392C121.326 197.499 121.7 197.616 122.084 197.744V202.064H120.036V199.536L119.428 198.832C119.15 198.768 118.852 198.715 118.532 198.672C118.212 198.629 117.87 198.608 117.508 198.608C116.484 198.608 115.716 198.811 115.204 199.216C114.713 199.6 114.468 200.091 114.468 200.688C114.468 201.264 114.681 201.765 115.108 202.192C115.534 202.619 116.068 203.024 116.708 203.408C117.348 203.771 118.041 204.133 118.788 204.496C119.534 204.859 120.228 205.275 120.868 205.744C121.508 206.192 122.041 206.715 122.468 207.312C122.894 207.909 123.108 208.624 123.108 209.456C123.108 210.224 122.926 210.907 122.564 211.504C122.222 212.101 121.742 212.613 121.124 213.04C120.526 213.445 119.812 213.765 118.98 214C118.169 214.213 117.305 214.32 116.388 214.32C115.364 214.32 114.361 214.192 113.38 213.936C112.42 213.659 111.662 213.339 111.108 212.976V208.784H113.156V211.216L113.796 211.888C114.073 212.101 114.404 212.272 114.788 212.4C115.172 212.528 115.673 212.592 116.292 212.592C117.316 212.592 118.158 212.379 118.82 211.952C119.481 211.525 119.812 210.939 119.812 210.192ZM125.294 197.2H128.142V193.2H131.502V197.2H136.814V199.248H131.502V208.592C131.502 209.936 131.673 210.885 132.014 211.44C132.355 211.995 132.91 212.272 133.678 212.272C134.339 212.272 134.905 212.155 135.374 211.92C135.865 211.685 136.313 211.429 136.718 211.152L137.518 212.4C137.326 212.592 137.059 212.805 136.718 213.04C136.398 213.253 136.025 213.456 135.598 213.648C135.171 213.84 134.691 214 134.158 214.128C133.646 214.256 133.113 214.32 132.558 214.32C131.129 214.32 130.03 213.957 129.262 213.232C128.515 212.485 128.142 211.259 128.142 209.552V199.248H125.294V197.2ZM147.661 214H139.565V212.4H141.933V198.8H139.565V197.2H145.293V212.4H147.661V214ZM141.229 192.016C141.229 191.397 141.442 190.907 141.869 190.544C142.317 190.181 142.882 190 143.565 190C144.29 190 144.856 190.181 145.261 190.544C145.688 190.907 145.901 191.397 145.901 192.016C145.901 192.635 145.688 193.125 145.261 193.488C144.856 193.851 144.29 194.032 143.565 194.032C142.882 194.032 142.317 193.851 141.869 193.488C141.442 193.125 141.229 192.635 141.229 192.016ZM149.513 197.2H152.361V193.2H155.721V197.2H161.033V199.248H155.721V208.592C155.721 209.936 155.891 210.885 156.233 211.44C156.574 211.995 157.129 212.272 157.897 212.272C158.558 212.272 159.123 212.155 159.593 211.92C160.083 211.685 160.531 211.429 160.937 211.152L161.737 212.4C161.545 212.592 161.278 212.805 160.937 213.04C160.617 213.253 160.243 213.456 159.817 213.648C159.39 213.84 158.91 214 158.377 214.128C157.865 214.256 157.331 214.32 156.777 214.32C155.347 214.32 154.249 213.957 153.481 213.232C152.734 212.485 152.361 211.259 152.361 209.552V199.248H149.513V197.2ZM165.128 207.344C165.128 205.936 165.16 204.496 165.224 203.024C165.288 201.552 165.32 200.144 165.32 198.8H162.952V197.2H168.648C168.605 198.864 168.562 200.464 168.52 202C168.498 203.515 168.488 205.093 168.488 206.736C168.488 207.611 168.53 208.389 168.616 209.072C168.722 209.733 168.904 210.299 169.16 210.768C169.437 211.237 169.81 211.589 170.28 211.824C170.749 212.059 171.346 212.176 172.072 212.176C173.138 212.176 174.034 211.835 174.76 211.152C175.485 210.469 176.04 209.552 176.424 208.4V198.8H174.088V197.2H179.784V212.4H182.152V214H176.808L176.584 210.352H176.424C176.317 210.8 176.104 211.259 175.784 211.728C175.485 212.197 175.101 212.624 174.632 213.008C174.162 213.392 173.618 213.712 173 213.968C172.381 214.203 171.709 214.32 170.984 214.32C170.024 214.32 169.181 214.213 168.456 214C167.73 213.808 167.122 213.445 166.632 212.912C166.141 212.379 165.768 211.664 165.512 210.768C165.256 209.872 165.128 208.731 165.128 207.344ZM183.607 197.2H186.455V193.2H189.815V197.2H195.127V199.248H189.815V208.592C189.815 209.936 189.985 210.885 190.327 211.44C190.668 211.995 191.223 212.272 191.991 212.272C192.652 212.272 193.217 212.155 193.687 211.92C194.177 211.685 194.625 211.429 195.031 211.152L195.831 212.4C195.639 212.592 195.372 212.805 195.031 213.04C194.711 213.253 194.337 213.456 193.911 213.648C193.484 213.84 193.004 214 192.47 214.128C191.959 214.256 191.425 214.32 190.871 214.32C189.441 214.32 188.343 213.957 187.575 213.232C186.828 212.485 186.455 211.259 186.455 209.552V199.248H183.607V197.2ZM205.974 214H197.878V212.4H200.246V198.8H197.878V197.2H203.606V212.4H205.974V214ZM199.542 192.016C199.542 191.397 199.755 190.907 200.182 190.544C200.63 190.181 201.195 190 201.878 190C202.603 190 203.168 190.181 203.574 190.544C204 190.907 204.214 191.397 204.214 192.016C204.214 192.635 204 193.125 203.574 193.488C203.168 193.851 202.603 194.032 201.878 194.032C201.195 194.032 200.63 193.851 200.182 193.488C199.755 193.125 199.542 192.635 199.542 192.016ZM208.721 205.616C208.721 204.208 208.924 202.96 209.329 201.872C209.735 200.784 210.3 199.877 211.025 199.152C211.772 198.405 212.668 197.84 213.713 197.456C214.78 197.072 215.953 196.88 217.233 196.88C218.727 196.88 220.007 197.093 221.073 197.52C222.161 197.925 223.047 198.512 223.729 199.28C224.412 200.027 224.913 200.944 225.233 202.032C225.575 203.099 225.745 204.293 225.745 205.616C225.745 207.024 225.543 208.272 225.137 209.36C224.753 210.427 224.188 211.333 223.441 212.08C222.716 212.805 221.82 213.36 220.753 213.744C219.708 214.128 218.535 214.32 217.233 214.32C215.783 214.32 214.524 214.117 213.457 213.712C212.391 213.285 211.505 212.699 210.801 211.952C210.097 211.184 209.575 210.267 209.233 209.2C208.892 208.133 208.721 206.939 208.721 205.616ZM212.337 205.616C212.337 206.64 212.433 207.589 212.625 208.464C212.817 209.339 213.127 210.096 213.553 210.736C214.001 211.376 214.567 211.888 215.249 212.272C215.953 212.635 216.807 212.816 217.809 212.816C219.068 212.816 220.103 212.24 220.913 211.088C221.724 209.936 222.129 208.112 222.129 205.616C222.129 204.592 222.033 203.643 221.841 202.768C221.649 201.872 221.34 201.104 220.913 200.464C220.508 199.803 219.975 199.291 219.313 198.928C218.673 198.565 217.884 198.384 216.945 198.384C215.537 198.384 214.417 198.96 213.585 200.112C212.753 201.264 212.337 203.099 212.337 205.616ZM248.02 214H240.18V212.4H242.292V204.368C242.292 202.683 242.036 201.371 241.524 200.432C241.012 199.493 240.073 199.024 238.708 199.024C238.11 199.024 237.556 199.12 237.044 199.312C236.553 199.504 236.105 199.76 235.7 200.08C235.316 200.4 234.974 200.773 234.676 201.2C234.398 201.627 234.185 202.075 234.036 202.544V212.4H236.148V214H228.308V212.4H230.676V198.8H228.308V197.2H234.036V200.528H234.068C234.558 199.504 235.273 198.64 236.212 197.936C237.172 197.232 238.324 196.88 239.668 196.88C240.628 196.88 241.481 196.987 242.228 197.2C242.974 197.392 243.593 197.755 244.083 198.288C244.596 198.821 244.98 199.536 245.236 200.432C245.513 201.328 245.652 202.469 245.652 203.856V212.4H248.02V214ZM263.473 209.552C263.473 210.043 263.484 210.544 263.505 211.056C263.526 211.547 263.558 211.995 263.601 212.4H265.713V214H260.689L260.369 210.96H260.209C260.102 211.387 259.9 211.803 259.601 212.208C259.324 212.613 258.961 212.976 258.513 213.296C258.086 213.616 257.574 213.872 256.977 214.064C256.38 214.256 255.718 214.352 254.993 214.352C254.268 214.352 253.596 214.245 252.977 214.032C252.38 213.819 251.857 213.52 251.409 213.136C250.961 212.752 250.609 212.293 250.353 211.76C250.118 211.205 250.001 210.587 250.001 209.904C250.001 208.859 250.214 207.995 250.641 207.312C251.089 206.629 251.74 206.096 252.593 205.712C253.446 205.307 254.513 205.019 255.793 204.848C257.073 204.677 258.566 204.581 260.273 204.56C260.316 204.219 260.337 203.899 260.337 203.6C260.337 203.28 260.337 202.971 260.337 202.672C260.337 201.349 260.113 200.347 259.665 199.664C259.217 198.96 258.417 198.608 257.265 198.608C256.838 198.608 256.38 198.629 255.889 198.672C255.398 198.715 254.95 198.843 254.545 199.056V202H251.665V198.448C252.433 198.043 253.34 197.68 254.385 197.36C255.43 197.04 256.657 196.88 258.065 196.88C259.281 196.88 260.252 197.04 260.977 197.36C261.724 197.659 262.289 198.064 262.673 198.576C263.078 199.067 263.334 199.632 263.441 200.272C263.569 200.891 263.633 201.509 263.633 202.128C263.633 203.472 263.601 204.763 263.537 206C263.494 207.216 263.473 208.4 263.473 209.552ZM256.465 212.208C256.977 212.208 257.436 212.133 257.841 211.984C258.246 211.813 258.598 211.611 258.897 211.376C259.217 211.12 259.484 210.843 259.697 210.544C259.932 210.245 260.124 209.957 260.273 209.68V205.872C258.886 205.872 257.756 205.968 256.881 206.16C256.028 206.331 255.356 206.565 254.865 206.864C254.374 207.163 254.033 207.525 253.841 207.952C253.67 208.357 253.585 208.795 253.585 209.264C253.585 210.224 253.841 210.96 254.353 211.472C254.865 211.963 255.569 212.208 256.465 212.208ZM276.38 214H268.284V212.4H270.652V191.6H267.932V190H274.012V212.4H276.38V214ZM287.493 214V212.208H290.405V193.392H287.493V191.6H291.429C291.834 191.6 292.303 191.589 292.837 191.568C293.391 191.547 293.957 191.525 294.533 191.504C295.109 191.461 295.653 191.429 296.165 191.408C296.698 191.365 297.146 191.344 297.509 191.344C299.493 191.344 301.242 191.6 302.757 192.112C304.271 192.603 305.541 193.328 306.565 194.288C307.589 195.227 308.357 196.389 308.869 197.776C309.402 199.163 309.669 200.741 309.669 202.512C309.669 204.219 309.423 205.787 308.933 207.216C308.442 208.645 307.674 209.893 306.629 210.96C305.583 212.005 304.239 212.827 302.597 213.424C300.975 214 299.034 214.288 296.773 214.288C296.431 214.288 296.037 214.267 295.589 214.224C295.141 214.203 294.661 214.171 294.149 214.128C293.658 214.107 293.157 214.075 292.645 214.032C292.133 214.011 291.653 214 291.205 214H287.493ZM297.029 193.136C296.431 193.136 295.855 193.147 295.301 193.168C294.746 193.189 294.309 193.232 293.989 193.296V212.368C294.117 212.389 294.33 212.411 294.629 212.432C294.927 212.432 295.247 212.443 295.589 212.464C295.951 212.464 296.293 212.475 296.613 212.496C296.933 212.496 297.157 212.496 297.285 212.496C298.885 212.496 300.218 212.229 301.285 211.696C302.351 211.141 303.205 210.416 303.845 209.52C304.506 208.603 304.975 207.547 305.253 206.352C305.53 205.136 305.669 203.856 305.669 202.512C305.669 201.467 305.53 200.389 305.253 199.28C304.997 198.171 304.538 197.157 303.877 196.24C303.215 195.323 302.33 194.576 301.221 194C300.111 193.424 298.714 193.136 297.029 193.136ZM327.468 211.792C326.913 212.581 326.124 213.211 325.1 213.68C324.097 214.128 322.924 214.352 321.58 214.352C320.172 214.352 318.924 214.149 317.836 213.744C316.769 213.317 315.873 212.731 315.148 211.984C314.423 211.216 313.868 210.299 313.484 209.232C313.121 208.144 312.94 206.939 312.94 205.616C312.94 202.757 313.655 200.592 315.084 199.12C316.513 197.627 318.519 196.88 321.1 196.88C321.953 196.88 322.785 196.987 323.596 197.2C324.428 197.413 325.164 197.765 325.804 198.256C326.444 198.747 326.956 199.397 327.34 200.208C327.745 201.019 327.948 202.021 327.948 203.216C327.948 203.579 327.927 203.963 327.884 204.368C327.841 204.773 327.777 205.2 327.692 205.648H316.556C316.556 206.587 316.673 207.44 316.908 208.208C317.164 208.976 317.537 209.637 318.028 210.192C318.54 210.747 319.169 211.184 319.916 211.504C320.663 211.803 321.548 211.952 322.572 211.952C323.404 211.952 324.172 211.813 324.876 211.536C325.601 211.259 326.177 210.939 326.604 210.576L327.468 211.792ZM320.972 198.384C320.311 198.384 319.724 198.48 319.212 198.672C318.721 198.864 318.295 199.184 317.932 199.632C317.569 200.08 317.281 200.677 317.068 201.424C316.855 202.149 316.716 203.056 316.652 204.144H324.364C324.385 203.952 324.396 203.76 324.396 203.568C324.417 203.355 324.428 203.163 324.428 202.992C324.428 201.584 324.14 200.464 323.564 199.632C323.009 198.8 322.145 198.384 320.972 198.384ZM337.145 212.208H340.569V214H330.649V212.208H333.561V193.392H330.649V191.6H347.961V196.848H345.913V194.096L345.273 193.392H337.145V202.16H342.937L343.417 201.68V200.144H345.465V206H343.417V204.464L342.937 203.952H337.145V212.208ZM360.635 214H351.227V212.208H354.139V193.392H351.227V191.6H360.635V193.392H357.723V212.208H360.635V214Z" fill="white"/>
<g clip-path="url(#clip0_460_2753)">
<path d="M217.967 120.213L199.592 128.088C198.443 128.581 197.803 129.811 198.058 131.025C198.312 132.239 199.378 133.125 200.625 133.125V133.781C200.625 134.872 201.503 135.75 202.594 135.75H235.406C236.497 135.75 237.375 134.872 237.375 133.781V133.125C238.622 133.125 239.697 132.247 239.943 131.025C240.189 129.803 239.549 128.572 238.409 128.088L220.034 120.213C219.378 119.934 218.623 119.934 217.967 120.213ZM208.5 138.375H203.25V154.478C203.201 154.502 203.152 154.535 203.103 154.568L199.165 157.193C198.205 157.833 197.771 159.031 198.107 160.138C198.443 161.245 199.469 162 200.625 162H237.375C238.532 162 239.549 161.245 239.885 160.138C240.222 159.031 239.795 157.833 238.827 157.193L234.89 154.568C234.84 154.535 234.791 154.511 234.742 154.478V138.375H229.5V154.125H226.219V138.375H220.969V154.125H217.031V138.375H211.781V154.125H208.5V138.375ZM219 125.25C219.696 125.25 220.364 125.527 220.856 126.019C221.349 126.511 221.625 127.179 221.625 127.875C221.625 128.571 221.349 129.239 220.856 129.731C220.364 130.223 219.696 130.5 219 130.5C218.304 130.5 217.636 130.223 217.144 129.731C216.652 129.239 216.375 128.571 216.375 127.875C216.375 127.179 216.652 126.511 217.144 126.019C217.636 125.527 218.304 125.25 219 125.25Z" fill="white"/>
</g>
<defs>
<linearGradient id="paint0_linear_460_2753" x1="46" y1="21.3422" x2="337.918" y2="902.449" gradientUnits="userSpaceOnUse">
<stop stop-color="#0C151D"/>
<stop offset="1" stop-color="#365D83"/>
</linearGradient>
<clipPath id="clip0_460_2753">
<rect width="42" height="42" fill="white" transform="translate(198 120)"/>
</clipPath>
</defs>
</svg>
