<svg width="438" height="344" viewBox="0 0 438 344" fill="none" xmlns="http://www.w3.org/2000/svg">
<rect width="438" height="344" fill="url(#paint0_linear_463_2764)"/>
<path d="M214 142C219.525 142 224 137.525 224 132C224 126.475 219.525 122 214 122C208.475 122 204 126.475 204 132C204 137.525 208.475 142 214 142ZM214 127C215.326 127 216.598 127.527 217.536 128.464C218.473 129.402 219 130.674 219 132C219 133.326 218.473 134.598 217.536 135.536C216.598 136.473 215.326 137 214 137C211.225 137 209 134.775 209 132C209 129.225 211.25 127 214 127ZM219 162H194V154.5C194 147.825 207.325 144.5 214 144.5C216.5 144.5 219.95 144.975 223.275 145.9C222.525 147.3 222.075 148.85 222.025 150.475C219.575 149.75 216.775 149.25 214 149.25C206.575 149.25 198.75 152.9 198.75 154.5V157.25H219V162ZM241 154.5V150.75C241 147.25 237.5 144.5 234 144.5C230.5 144.5 227 147.25 227 150.75V154.5C225.5 154.5 224 156 224 157.5V166.25C224 168 225.5 169.5 227 169.5H240.75C242.5 169.5 244 168 244 166.5V157.75C244 156 242.5 154.5 241 154.5ZM237.75 154.5H230.25V150.75C230.25 148.75 232 147.5 234 147.5C236 147.5 237.75 148.75 237.75 150.75V154.5Z" fill="#649DFF"/>
<path d="M93.072 218H83.664V216.208H86.576V197.392H83.664V195.6H93.072V197.392H90.16V216.208H93.072V218ZM115.582 218H107.742V216.4H109.854V208.368C109.854 206.683 109.598 205.371 109.086 204.432C108.574 203.493 107.635 203.024 106.27 203.024C105.673 203.024 105.118 203.12 104.606 203.312C104.115 203.504 103.667 203.76 103.262 204.08C102.878 204.4 102.537 204.773 102.238 205.2C101.961 205.627 101.747 206.075 101.598 206.544V216.4H103.71V218H95.87V216.4H98.238V202.8H95.87V201.2H101.598V204.528H101.63C102.121 203.504 102.835 202.64 103.774 201.936C104.734 201.232 105.886 200.88 107.23 200.88C108.19 200.88 109.043 200.987 109.79 201.2C110.537 201.392 111.155 201.755 111.646 202.288C112.158 202.821 112.542 203.536 112.798 204.432C113.075 205.328 113.214 206.469 113.214 207.856V216.4H115.582V218ZM126.812 214.192C126.812 213.616 126.598 213.115 126.172 212.688C125.745 212.24 125.212 211.835 124.572 211.472C123.932 211.088 123.238 210.715 122.492 210.352C121.745 209.968 121.052 209.541 120.411 209.072C119.772 208.581 119.238 208.016 118.812 207.376C118.385 206.715 118.172 205.925 118.172 205.008C118.172 204.389 118.321 203.835 118.62 203.344C118.918 202.832 119.313 202.395 119.804 202.032C120.316 201.669 120.913 201.392 121.596 201.2C122.278 200.987 123.004 200.88 123.772 200.88C124.412 200.88 124.977 200.901 125.468 200.944C125.958 200.987 126.406 201.051 126.812 201.136C127.217 201.2 127.601 201.285 127.964 201.392C128.326 201.499 128.7 201.616 129.084 201.744V206.064H127.036V203.536L126.428 202.832C126.15 202.768 125.852 202.715 125.532 202.672C125.212 202.629 124.87 202.608 124.508 202.608C123.484 202.608 122.716 202.811 122.204 203.216C121.713 203.6 121.468 204.091 121.468 204.688C121.468 205.264 121.681 205.765 122.108 206.192C122.534 206.619 123.068 207.024 123.708 207.408C124.348 207.771 125.041 208.133 125.788 208.496C126.534 208.859 127.228 209.275 127.868 209.744C128.508 210.192 129.041 210.715 129.468 211.312C129.894 211.909 130.108 212.624 130.108 213.456C130.108 214.224 129.926 214.907 129.564 215.504C129.222 216.101 128.742 216.613 128.124 217.04C127.526 217.445 126.812 217.765 125.98 218C125.169 218.213 124.305 218.32 123.388 218.32C122.364 218.32 121.361 218.192 120.38 217.936C119.42 217.659 118.662 217.339 118.108 216.976V212.784H120.156V215.216L120.796 215.888C121.073 216.101 121.404 216.272 121.788 216.4C122.172 216.528 122.673 216.592 123.292 216.592C124.316 216.592 125.158 216.379 125.82 215.952C126.481 215.525 126.812 214.939 126.812 214.192ZM132.294 201.2H135.142V197.2H138.502V201.2H143.814V203.248H138.502V212.592C138.502 213.936 138.673 214.885 139.014 215.44C139.355 215.995 139.91 216.272 140.678 216.272C141.339 216.272 141.905 216.155 142.374 215.92C142.865 215.685 143.313 215.429 143.718 215.152L144.518 216.4C144.326 216.592 144.059 216.805 143.718 217.04C143.398 217.253 143.025 217.456 142.598 217.648C142.171 217.84 141.691 218 141.158 218.128C140.646 218.256 140.113 218.32 139.558 218.32C138.129 218.32 137.03 217.957 136.262 217.232C135.515 216.485 135.142 215.259 135.142 213.552V203.248H132.294V201.2ZM154.661 218H146.565V216.4H148.933V202.8H146.565V201.2H152.293V216.4H154.661V218ZM148.229 196.016C148.229 195.397 148.442 194.907 148.869 194.544C149.317 194.181 149.882 194 150.565 194C151.29 194 151.856 194.181 152.261 194.544C152.688 194.907 152.901 195.397 152.901 196.016C152.901 196.635 152.688 197.125 152.261 197.488C151.856 197.851 151.29 198.032 150.565 198.032C149.882 198.032 149.317 197.851 148.869 197.488C148.442 197.125 148.229 196.635 148.229 196.016ZM156.513 201.2H159.361V197.2H162.721V201.2H168.033V203.248H162.721V212.592C162.721 213.936 162.891 214.885 163.233 215.44C163.574 215.995 164.129 216.272 164.897 216.272C165.558 216.272 166.123 216.155 166.593 215.92C167.083 215.685 167.531 215.429 167.937 215.152L168.737 216.4C168.545 216.592 168.278 216.805 167.937 217.04C167.617 217.253 167.243 217.456 166.817 217.648C166.39 217.84 165.91 218 165.377 218.128C164.865 218.256 164.331 218.32 163.777 218.32C162.347 218.32 161.249 217.957 160.481 217.232C159.734 216.485 159.361 215.259 159.361 213.552V203.248H156.513V201.2ZM172.128 211.344C172.128 209.936 172.16 208.496 172.224 207.024C172.288 205.552 172.32 204.144 172.32 202.8H169.952V201.2H175.648C175.605 202.864 175.562 204.464 175.52 206C175.498 207.515 175.488 209.093 175.488 210.736C175.488 211.611 175.53 212.389 175.616 213.072C175.722 213.733 175.904 214.299 176.16 214.768C176.437 215.237 176.81 215.589 177.28 215.824C177.749 216.059 178.346 216.176 179.072 216.176C180.138 216.176 181.034 215.835 181.76 215.152C182.485 214.469 183.04 213.552 183.424 212.4V202.8H181.088V201.2H186.784V216.4H189.152V218H183.808L183.584 214.352H183.424C183.317 214.8 183.104 215.259 182.784 215.728C182.485 216.197 182.101 216.624 181.632 217.008C181.162 217.392 180.618 217.712 180 217.968C179.381 218.203 178.709 218.32 177.984 218.32C177.024 218.32 176.181 218.213 175.456 218C174.73 217.808 174.122 217.445 173.632 216.912C173.141 216.379 172.768 215.664 172.512 214.768C172.256 213.872 172.128 212.731 172.128 211.344ZM190.607 201.2H193.455V197.2H196.815V201.2H202.127V203.248H196.815V212.592C196.815 213.936 196.985 214.885 197.327 215.44C197.668 215.995 198.223 216.272 198.991 216.272C199.652 216.272 200.217 216.155 200.687 215.92C201.177 215.685 201.625 215.429 202.031 215.152L202.831 216.4C202.639 216.592 202.372 216.805 202.031 217.04C201.711 217.253 201.337 217.456 200.911 217.648C200.484 217.84 200.004 218 199.47 218.128C198.959 218.256 198.425 218.32 197.871 218.32C196.441 218.32 195.343 217.957 194.575 217.232C193.828 216.485 193.455 215.259 193.455 213.552V203.248H190.607V201.2ZM212.974 218H204.878V216.4H207.246V202.8H204.878V201.2H210.606V216.4H212.974V218ZM206.542 196.016C206.542 195.397 206.755 194.907 207.182 194.544C207.63 194.181 208.195 194 208.878 194C209.603 194 210.168 194.181 210.574 194.544C211 194.907 211.214 195.397 211.214 196.016C211.214 196.635 211 197.125 210.574 197.488C210.168 197.851 209.603 198.032 208.878 198.032C208.195 198.032 207.63 197.851 207.182 197.488C206.755 197.125 206.542 196.635 206.542 196.016ZM215.721 209.616C215.721 208.208 215.924 206.96 216.329 205.872C216.735 204.784 217.3 203.877 218.025 203.152C218.772 202.405 219.668 201.84 220.713 201.456C221.78 201.072 222.953 200.88 224.233 200.88C225.727 200.88 227.007 201.093 228.073 201.52C229.161 201.925 230.047 202.512 230.729 203.28C231.412 204.027 231.913 204.944 232.233 206.032C232.575 207.099 232.745 208.293 232.745 209.616C232.745 211.024 232.543 212.272 232.137 213.36C231.753 214.427 231.188 215.333 230.441 216.08C229.716 216.805 228.82 217.36 227.753 217.744C226.708 218.128 225.535 218.32 224.233 218.32C222.783 218.32 221.524 218.117 220.457 217.712C219.391 217.285 218.505 216.699 217.801 215.952C217.097 215.184 216.575 214.267 216.233 213.2C215.892 212.133 215.721 210.939 215.721 209.616ZM219.337 209.616C219.337 210.64 219.433 211.589 219.625 212.464C219.817 213.339 220.127 214.096 220.553 214.736C221.001 215.376 221.567 215.888 222.249 216.272C222.953 216.635 223.807 216.816 224.809 216.816C226.068 216.816 227.103 216.24 227.913 215.088C228.724 213.936 229.129 212.112 229.129 209.616C229.129 208.592 229.033 207.643 228.841 206.768C228.649 205.872 228.34 205.104 227.913 204.464C227.508 203.803 226.975 203.291 226.313 202.928C225.673 202.565 224.884 202.384 223.945 202.384C222.537 202.384 221.417 202.96 220.585 204.112C219.753 205.264 219.337 207.099 219.337 209.616ZM255.02 218H247.18V216.4H249.292V208.368C249.292 206.683 249.036 205.371 248.524 204.432C248.012 203.493 247.073 203.024 245.708 203.024C245.11 203.024 244.556 203.12 244.044 203.312C243.553 203.504 243.105 203.76 242.7 204.08C242.316 204.4 241.974 204.773 241.676 205.2C241.398 205.627 241.185 206.075 241.036 206.544V216.4H243.148V218H235.308V216.4H237.676V202.8H235.308V201.2H241.036V204.528H241.068C241.558 203.504 242.273 202.64 243.212 201.936C244.172 201.232 245.324 200.88 246.668 200.88C247.628 200.88 248.481 200.987 249.228 201.2C249.974 201.392 250.593 201.755 251.083 202.288C251.596 202.821 251.98 203.536 252.236 204.432C252.513 205.328 252.652 206.469 252.652 207.856V216.4H255.02V218ZM270.473 213.552C270.473 214.043 270.484 214.544 270.505 215.056C270.526 215.547 270.558 215.995 270.601 216.4H272.713V218H267.689L267.369 214.96H267.209C267.102 215.387 266.9 215.803 266.601 216.208C266.324 216.613 265.961 216.976 265.513 217.296C265.086 217.616 264.574 217.872 263.977 218.064C263.38 218.256 262.718 218.352 261.993 218.352C261.268 218.352 260.596 218.245 259.977 218.032C259.38 217.819 258.857 217.52 258.409 217.136C257.961 216.752 257.609 216.293 257.353 215.76C257.118 215.205 257.001 214.587 257.001 213.904C257.001 212.859 257.214 211.995 257.641 211.312C258.089 210.629 258.74 210.096 259.593 209.712C260.446 209.307 261.513 209.019 262.793 208.848C264.073 208.677 265.566 208.581 267.273 208.56C267.316 208.219 267.337 207.899 267.337 207.6C267.337 207.28 267.337 206.971 267.337 206.672C267.337 205.349 267.113 204.347 266.665 203.664C266.217 202.96 265.417 202.608 264.265 202.608C263.838 202.608 263.38 202.629 262.889 202.672C262.398 202.715 261.95 202.843 261.545 203.056V206H258.665V202.448C259.433 202.043 260.34 201.68 261.385 201.36C262.43 201.04 263.657 200.88 265.065 200.88C266.281 200.88 267.252 201.04 267.977 201.36C268.724 201.659 269.289 202.064 269.673 202.576C270.078 203.067 270.334 203.632 270.441 204.272C270.569 204.891 270.633 205.509 270.633 206.128C270.633 207.472 270.601 208.763 270.537 210C270.494 211.216 270.473 212.4 270.473 213.552ZM263.465 216.208C263.977 216.208 264.436 216.133 264.841 215.984C265.246 215.813 265.598 215.611 265.897 215.376C266.217 215.12 266.484 214.843 266.697 214.544C266.932 214.245 267.124 213.957 267.273 213.68V209.872C265.886 209.872 264.756 209.968 263.881 210.16C263.028 210.331 262.356 210.565 261.865 210.864C261.374 211.163 261.033 211.525 260.841 211.952C260.67 212.357 260.585 212.795 260.585 213.264C260.585 214.224 260.841 214.96 261.353 215.472C261.865 215.963 262.569 216.208 263.465 216.208ZM283.38 218H275.284V216.4H277.652V195.6H274.932V194H281.012V216.4H283.38V218ZM294.493 218V216.208H297.405V197.392H294.493V195.6H298.429C298.834 195.6 299.303 195.589 299.837 195.568C300.391 195.547 300.957 195.525 301.533 195.504C302.109 195.461 302.653 195.429 303.165 195.408C303.698 195.365 304.146 195.344 304.509 195.344C306.493 195.344 308.242 195.6 309.757 196.112C311.271 196.603 312.541 197.328 313.565 198.288C314.589 199.227 315.357 200.389 315.869 201.776C316.402 203.163 316.669 204.741 316.669 206.512C316.669 208.219 316.423 209.787 315.933 211.216C315.442 212.645 314.674 213.893 313.629 214.96C312.583 216.005 311.239 216.827 309.597 217.424C307.975 218 306.034 218.288 303.773 218.288C303.431 218.288 303.037 218.267 302.589 218.224C302.141 218.203 301.661 218.171 301.149 218.128C300.658 218.107 300.157 218.075 299.645 218.032C299.133 218.011 298.653 218 298.205 218H294.493ZM304.029 197.136C303.431 197.136 302.855 197.147 302.301 197.168C301.746 197.189 301.309 197.232 300.989 197.296V216.368C301.117 216.389 301.33 216.411 301.629 216.432C301.927 216.432 302.247 216.443 302.589 216.464C302.951 216.464 303.293 216.475 303.613 216.496C303.933 216.496 304.157 216.496 304.285 216.496C305.885 216.496 307.218 216.229 308.285 215.696C309.351 215.141 310.205 214.416 310.845 213.52C311.506 212.603 311.975 211.547 312.253 210.352C312.53 209.136 312.669 207.856 312.669 206.512C312.669 205.467 312.53 204.389 312.253 203.28C311.997 202.171 311.538 201.157 310.877 200.24C310.215 199.323 309.33 198.576 308.221 198C307.111 197.424 305.714 197.136 304.029 197.136ZM328.036 218H319.94V216.4H322.308V202.8H319.94V201.2H325.668V216.4H328.036V218ZM321.604 196.016C321.604 195.397 321.817 194.907 322.244 194.544C322.692 194.181 323.257 194 323.94 194C324.665 194 325.231 194.181 325.636 194.544C326.063 194.907 326.276 195.397 326.276 196.016C326.276 196.635 326.063 197.125 325.636 197.488C325.231 197.851 324.665 198.032 323.94 198.032C323.257 198.032 322.692 197.851 322.244 197.488C321.817 197.125 321.604 196.635 321.604 196.016ZM330.368 218V216.208H333.28V197.392H330.368V195.6H334.304C334.709 195.6 335.178 195.589 335.712 195.568C336.266 195.547 336.832 195.525 337.408 195.504C337.984 195.461 338.528 195.429 339.04 195.408C339.573 195.365 340.021 195.344 340.384 195.344C342.368 195.344 344.117 195.6 345.632 196.112C347.146 196.603 348.416 197.328 349.44 198.288C350.464 199.227 351.232 200.389 351.744 201.776C352.277 203.163 352.544 204.741 352.544 206.512C352.544 208.219 352.298 209.787 351.808 211.216C351.317 212.645 350.549 213.893 349.504 214.96C348.458 216.005 347.114 216.827 345.472 217.424C343.85 218 341.909 218.288 339.648 218.288C339.306 218.288 338.912 218.267 338.464 218.224C338.016 218.203 337.536 218.171 337.024 218.128C336.533 218.107 336.032 218.075 335.52 218.032C335.008 218.011 334.528 218 334.08 218H330.368ZM339.904 197.136C339.306 197.136 338.73 197.147 338.176 197.168C337.621 197.189 337.184 197.232 336.864 197.296V216.368C336.992 216.389 337.205 216.411 337.504 216.432C337.802 216.432 338.122 216.443 338.464 216.464C338.826 216.464 339.168 216.475 339.488 216.496C339.808 216.496 340.032 216.496 340.16 216.496C341.76 216.496 343.093 216.229 344.16 215.696C345.226 215.141 346.08 214.416 346.72 213.52C347.381 212.603 347.85 211.547 348.128 210.352C348.405 209.136 348.544 207.856 348.544 206.512C348.544 205.467 348.405 204.389 348.128 203.28C347.872 202.171 347.413 201.157 346.752 200.24C346.09 199.323 345.205 198.576 344.096 198C342.986 197.424 341.589 197.136 339.904 197.136Z" fill="#649DFF"/>
<defs>
<linearGradient id="paint0_linear_463_2764" x1="51" y1="-2.36533e-06" x2="280" y2="344" gradientUnits="userSpaceOnUse">
<stop stop-color="#0050A0"/>
<stop offset="1" stop-color="#022D58"/>
</linearGradient>
</defs>
</svg>
