<svg width="32" height="32" viewBox="0 0 32 32" fill="none" xmlns="http://www.w3.org/2000/svg">
<g clip-path="url(#clip0)">
<path d="M7.8751 0C6.94527 0.00961048 6.04044 0.302269 5.2811 0.839L5.2971 0.829C4.52723 1.36823 3.94218 2.13155 3.62154 3.0151C3.3009 3.89865 3.26024 4.85952 3.5051 5.767L3.4951 5.736V27.424C3.4951 29.96 5.5421 32.002 8.0731 32.002C10.6041 32.002 12.6511 29.96 12.6511 27.424V22.846H15.1411L20.1621 30.023C20.5036 30.5169 20.9395 30.9384 21.4446 31.263C21.9497 31.5877 22.5141 31.8092 23.1053 31.9147C23.6964 32.0202 24.3026 32.0077 24.8888 31.8778C25.4751 31.7479 26.0298 31.5033 26.5211 31.158C27.0146 30.8167 27.4356 30.381 27.7598 29.8761C28.084 29.3713 28.305 28.8072 28.4101 28.2165C28.5151 27.6257 28.5021 27.02 28.3719 26.4343C28.2416 25.8486 27.9966 25.2945 27.6511 24.804L24.4741 20.262C25.7817 19.1902 26.8348 17.8412 27.5572 16.3125C28.2796 14.7839 28.6532 13.1138 28.6511 11.423C28.6511 5.116 23.4951 0.006 17.2081 0.006H8.0101L7.8751 0ZM10.9581 1.156H17.2081C22.8751 1.245 27.4271 5.911 27.3381 11.578C27.3152 13.0339 26.9834 14.4683 26.3647 15.7864C25.746 17.1045 24.8545 18.2762 23.7491 19.224L23.1401 18.359C24.5582 17.1463 25.5706 15.5282 26.0409 13.7225C26.5111 11.9168 26.4166 10.0103 25.7701 8.26C25.1242 6.50898 23.9571 4.99802 22.426 3.93075C20.8949 2.86348 19.0735 2.29119 17.2071 2.291H11.8841C11.8144 2.16993 11.7397 2.05183 11.6601 1.937L11.6701 1.953C11.4649 1.66303 11.2273 1.39733 10.9621 1.161L10.9581 1.156ZM12.3491 3.422H17.2081C21.6301 3.422 25.2081 7 25.2081 11.422C25.2094 12.5597 24.9674 13.6845 24.4985 14.721C24.0295 15.7575 23.3444 16.6819 22.4891 17.432L21.8381 16.5C26.4631 12.266 23.4731 4.562 17.2081 4.557H12.4941C12.4936 4.16316 12.4429 3.77099 12.3431 3.39L12.3491 3.422ZM12.3541 5.714H17.2081C17.9598 5.72907 18.7011 5.89229 19.3896 6.19433C20.078 6.49637 20.7002 6.93129 21.2203 7.47417C21.7404 8.01704 22.1483 8.6572 22.4206 9.35798C22.6929 10.0588 22.8242 10.8064 22.8071 11.558C22.7764 13.035 22.1776 14.4433 21.1351 15.49L20.8071 15.026C20.6959 14.8621 20.5722 14.7069 20.4371 14.562C21.2123 13.7426 21.6544 12.6638 21.6771 11.536C21.6997 10.32 21.2401 9.14442 20.3989 8.26606C19.5576 7.3877 18.403 6.87791 17.1871 6.848H11.8951C12.0881 6.52 12.2441 6.145 12.3531 5.744L12.3581 5.713L12.3541 5.714ZM4.6511 7.771C4.97741 8.10378 5.35112 8.3865 5.7601 8.61L5.7861 8.62V27.422C5.78571 27.7231 5.84472 28.0213 5.95977 28.2996C6.07481 28.5778 6.24362 28.8307 6.45653 29.0436C6.66944 29.2565 6.92227 29.4253 7.20052 29.5403C7.47878 29.6554 7.777 29.7144 8.0781 29.714C9.3181 29.714 10.3441 28.688 10.3641 27.401V20.557H13.5361L14.3491 21.713H11.4951V27.421C11.3491 31.832 4.8021 31.832 4.6511 27.421V7.771ZM11.4951 7.979H17.2091C17.6617 7.97728 18.1102 8.06516 18.5287 8.23758C18.9472 8.41 19.3274 8.66354 19.6475 8.9836C19.9676 9.30365 20.2211 9.68389 20.3935 10.1024C20.5659 10.5209 20.6538 10.9694 20.6521 11.422C20.6521 12.38 20.2671 13.245 19.6421 13.865C19.3024 13.6335 18.9326 13.4494 18.5431 13.318C18.8458 13.108 19.093 12.8277 19.2635 12.5011C19.4341 12.1745 19.5228 11.8114 19.5221 11.443C19.5217 11.1396 19.4616 10.8393 19.3451 10.5592C19.2287 10.2791 19.0582 10.0247 18.8434 9.81046C18.6286 9.59624 18.3737 9.42641 18.0933 9.31069C17.8129 9.19497 17.5125 9.13561 17.2091 9.136H12.6311V13.735H14.6941C14.2088 14.0317 13.7817 14.4147 13.4341 14.865H11.4961L11.4951 7.979ZM10.3441 8.464V16.027H12.7921C12.6575 16.3913 12.5681 16.7709 12.5261 17.157H9.2081V8.969C9.6401 8.839 10.0151 8.667 10.3591 8.453L10.3441 8.464ZM6.9221 9.036C7.2291 9.114 7.5781 9.151 7.9381 9.151H8.0791V18.292H12.5481C12.6051 18.677 12.7041 19.052 12.8661 19.422H9.2101V27.422C9.20619 27.7229 9.08667 28.0108 8.8763 28.226C8.66594 28.4412 8.38085 28.5672 8.0801 28.578C7.92996 28.5798 7.78093 28.5521 7.64154 28.4963C7.50215 28.4404 7.37513 28.3577 7.26776 28.2527C7.16039 28.1478 7.07477 28.0227 7.0158 27.8846C6.95683 27.7465 6.92567 27.5981 6.9241 27.448L6.9221 9.036ZM13.7661 10.266H17.1881C17.8291 10.266 18.3441 10.782 18.3441 11.422C18.3441 12.068 17.8541 12.599 17.2091 12.599L13.7661 12.578V10.266Z" fill="white"/>
</g>
<defs>
<clipPath id="clip0">
<rect width="32" height="32" fill="white"/>
</clipPath>
</defs>
</svg>
