<svg width="140" height="140" viewBox="0 0 140 140" fill="none" xmlns="http://www.w3.org/2000/svg">
<rect width="140" height="140" rx="23.3333" fill="white"/>
<g style="mix-blend-mode:multiply">
<rect width="140" height="140" fill="url(#paint0_linear)"/>
</g>
<path fill-rule="evenodd" clip-rule="evenodd" d="M31.4995 76.3786C20.2506 84.8289 15.597 84.204 15.597 84.204C15.597 84.204 31.9182 88.3682 42.8181 81.0881C47.864 77.718 52.9828 73.0084 57.3661 68.9755C58.6685 67.7771 59.9061 66.6385 61.0574 65.6125C72.9443 55.0205 94.4332 64.9686 94.4332 64.9686C94.4332 64.9686 83.27 53.5478 77.6151 51.1551C69.904 47.8925 64.0611 46.7889 56.4349 51.8947C52.812 54.3204 49.5424 58.0599 45.902 62.2236C41.8795 66.8243 37.4044 71.9428 31.4995 76.3786ZM84.6228 67.2383C67.6256 62.3675 47.6667 89.3091 47.6667 89.3091C47.6667 89.3091 63.4238 79.3247 75.6396 80.3602C80.8173 80.7991 86.1003 83.1096 91.3578 85.409C98.5041 88.5344 105.603 91.6392 112.326 89.9948C123.996 87.1406 127.24 82.8712 127.24 82.8712C127.24 82.8712 122.397 83.8639 112.022 81.2745C109.144 80.5562 104.302 77.702 99.2467 74.7217C93.9304 71.5877 88.3776 68.3143 84.6228 67.2383Z" fill="#373636"/>
<defs>
<linearGradient id="paint0_linear" x1="-23.1848" y1="134.703" x2="114.63" y2="164.556" gradientUnits="userSpaceOnUse">
<stop stop-color="#FFD700"/>
<stop offset="1" stop-color="#FAC811"/>
</linearGradient>
</defs>
</svg>
