<svg width="24" height="24" viewBox="0 0 24 24" fill="none" xmlns="http://www.w3.org/2000/svg">
<g clip-path="url(#clip0)">
<path d="M12.5037 0C12.3477 0 12.188 0.00825 12.023 0.02025C7.79673 0.3555 8.91798 4.8285 8.85498 6.32025C8.77698 7.41 8.55498 8.27325 7.80498 9.3405C6.91773 10.3913 5.67573 12.0907 5.08623 13.8593C4.80948 14.691 4.67598 15.5475 4.80123 16.3522C4.75406 16.3872 4.71536 16.4323 4.68798 16.4842C4.42998 16.7542 4.23798 17.0865 4.02723 17.3243C3.82848 17.523 3.54348 17.5905 3.22998 17.7233C2.91798 17.859 2.56998 17.9925 2.36673 18.4065C2.27673 18.5947 2.22948 18.7972 2.23398 19.0087C2.23398 19.2037 2.26173 19.407 2.28873 19.5435C2.34798 19.9417 2.40573 20.2703 2.32773 20.5125C2.07798 21.1912 2.05098 21.6562 2.22273 21.9967C2.39748 22.3328 2.75748 22.4655 3.15948 22.599C3.97248 22.7978 5.06973 22.7347 5.93748 23.196C6.86223 23.6647 7.80423 23.868 8.55423 23.6693C8.81293 23.6112 9.05546 23.4963 9.2642 23.3329C9.47294 23.1694 9.64264 22.9615 9.76098 22.7243C10.3467 22.7205 10.991 22.4543 12.0192 22.3883C12.7182 22.329 13.5935 22.6575 14.597 22.587C14.624 22.7242 14.6592 22.7857 14.714 22.923V22.9268C15.104 23.7038 15.827 24.0555 16.601 23.997C17.3697 23.9347 18.1902 23.4622 18.854 22.689C19.487 21.927 20.5377 21.606 21.233 21.189C21.581 20.9888 21.8622 20.7202 21.8817 20.3333C21.905 19.935 21.683 19.521 21.1707 18.9585V18.8602L21.167 18.8565C20.9952 18.6578 20.9172 18.3218 20.8272 17.9318C20.741 17.529 20.6472 17.1465 20.3352 16.8848C20.2722 16.83 20.21 16.818 20.144 16.752C20.0886 16.713 20.0234 16.6901 19.9557 16.686C20.3855 15.408 20.2175 14.139 19.7795 12.9938C19.2485 11.5838 18.3147 10.3538 17.6075 9.51C16.8102 8.50575 16.0295 7.55325 16.0452 6.14325C16.0722 3.99 16.283 0.0105 12.5022 0.00225L12.5037 0ZM13.031 3.40575H13.0467C13.2575 3.40575 13.4405 3.46875 13.6287 3.6015C13.82 3.73725 13.961 3.93375 14.066 4.13625C14.1717 4.39425 14.2272 4.593 14.234 4.8585C14.234 4.83975 14.2377 4.8195 14.2377 4.80075V4.90575C14.2377 4.8975 14.234 4.89075 14.234 4.8825L14.2302 4.8585C14.2302 5.1015 14.18 5.34375 14.0825 5.56575C14.0361 5.69213 13.9627 5.80683 13.8672 5.90175C13.8402 5.88675 13.8125 5.871 13.781 5.859C13.676 5.81175 13.5822 5.79675 13.496 5.727C13.425 5.69857 13.3517 5.67624 13.277 5.66025C13.3242 5.6025 13.4217 5.5275 13.4607 5.4615C13.5117 5.33625 13.5387 5.19975 13.547 5.0595V5.03925C13.5491 4.90386 13.5278 4.76912 13.484 4.641C13.4412 4.50825 13.3872 4.44075 13.3047 4.30875C13.2185 4.242 13.1367 4.176 13.0347 4.176H13.0197C12.926 4.176 12.8435 4.203 12.758 4.30875C12.6641 4.40126 12.5944 4.51533 12.5547 4.641C12.5002 4.76701 12.4697 4.90206 12.4647 5.03925V5.0595C12.4647 5.14875 12.473 5.23875 12.4835 5.32875C12.2885 5.26275 12.0462 5.1915 11.8745 5.1255C11.8651 5.05964 11.8599 4.99326 11.8587 4.92675V4.9065C11.8511 4.64238 11.9021 4.37985 12.008 4.13775C12.0897 3.91875 12.2382 3.7305 12.4377 3.606C12.6087 3.47775 12.8157 3.40725 13.031 3.40725V3.40575ZM10.07 3.465H10.1052C10.2462 3.465 10.3752 3.51225 10.5042 3.59775C10.652 3.72675 10.7705 3.8865 10.8485 4.062C10.9385 4.26225 10.9887 4.46475 11.0045 4.73025V4.734C11.0082 4.86675 11.0082 4.938 11.0007 5.00025V5.082L10.919 5.10525C10.7667 5.16 10.646 5.238 10.5237 5.3055C10.5357 5.2155 10.5357 5.1255 10.5275 5.03925V5.0235C10.5162 4.8915 10.4885 4.82475 10.4457 4.69125C10.4137 4.58859 10.3559 4.49588 10.2777 4.422C10.2286 4.3782 10.1642 4.35556 10.0985 4.359H10.0745C10.0047 4.36275 9.94548 4.398 9.89148 4.49175C9.82537 4.5678 9.78334 4.66177 9.77073 4.76175C9.74298 4.86675 9.73473 4.98 9.74673 5.094V5.10525C9.75873 5.2425 9.78198 5.30925 9.82848 5.44125C9.85866 5.54299 9.91534 5.63488 9.99273 5.7075C10.0047 5.7195 10.013 5.72775 10.028 5.73075C9.95823 5.79 9.91098 5.802 9.85323 5.868C9.81348 5.89575 9.77148 5.931 9.72048 5.93925C9.61646 5.81414 9.52479 5.67926 9.44673 5.5365C9.35104 5.32626 9.29801 5.09913 9.29073 4.86825C9.27559 4.6426 9.30203 4.41609 9.36873 4.2C9.42798 4.005 9.52173 3.82125 9.65373 3.66525C9.78273 3.5325 9.91173 3.4665 10.0715 3.4665L10.07 3.465ZM11.441 5.172C11.7732 5.172 12.1722 5.23425 12.656 5.57025C12.9492 5.7705 13.1802 5.84025 13.7112 6.03525C13.9692 6.1725 14.117 6.30525 14.1912 6.438V6.30525C14.2268 6.37769 14.2467 6.45688 14.2494 6.53756C14.2521 6.61824 14.2376 6.69858 14.207 6.77325C14.0817 7.086 13.691 7.41825 13.1412 7.617V7.62075C12.875 7.7535 12.641 7.953 12.3672 8.08575C12.0905 8.2185 11.777 8.379 11.3555 8.352C11.2028 8.3587 11.0503 8.33604 10.9062 8.28525C10.7951 8.22627 10.6881 8.15987 10.586 8.0865C10.391 7.95375 10.223 7.75425 9.97323 7.6215V7.61775H9.96948C9.56673 7.37175 9.35223 7.1055 9.28173 6.90675C9.21573 6.6375 9.27798 6.43875 9.47748 6.306C9.69948 6.17325 9.85548 6.036 9.95748 5.97C10.0625 5.89575 10.1022 5.868 10.1337 5.841H10.1375V5.83725C10.3055 5.634 10.5702 5.3685 10.9775 5.235C11.1132 5.19975 11.2707 5.17275 11.4417 5.17275L11.441 5.172ZM14.2377 7.31175C14.5977 8.73 15.4377 10.7888 15.977 11.7847C16.262 12.3195 16.832 13.4445 17.078 14.8088C17.234 14.805 17.4057 14.8275 17.5902 14.8748C18.2382 13.203 17.0472 11.406 16.5042 10.9058C16.2815 10.707 16.2702 10.5735 16.379 10.5735C16.9692 11.1045 17.7417 12.1448 18.023 13.3275C18.152 13.8623 18.1842 14.4338 18.047 14.9993C18.113 15.0263 18.1797 15.0615 18.2502 15.0653C19.2815 15.6015 19.664 16.0035 19.4802 16.6042V16.5615C19.4225 16.5585 19.3595 16.5615 19.301 16.5615H19.2852C19.4382 16.0935 19.1022 15.7335 18.2195 15.3353C17.3052 14.937 16.5747 14.9992 16.4495 15.8002C16.4406 15.8455 16.4356 15.8914 16.4345 15.9375C16.3632 15.9607 16.2935 15.9878 16.2237 15.9998C15.794 16.2698 15.563 16.6717 15.431 17.1877C15.302 17.7225 15.263 18.3435 15.2277 19.059C15.2037 19.395 15.056 19.8982 14.9067 20.4097C13.4067 21.4837 11.3247 21.9487 9.55998 20.7458C9.44598 20.5507 9.31323 20.3708 9.15723 20.211C9.08233 20.0869 8.98902 19.9748 8.88048 19.8787C9.06348 19.8787 9.22023 19.848 9.34548 19.812C9.48853 19.7431 9.601 19.6237 9.66123 19.4767C9.76698 19.2105 9.66123 18.7808 9.31323 18.312C8.97048 17.8477 8.38398 17.3197 7.52823 16.7933C6.89598 16.395 6.54048 15.9225 6.37623 15.3983C6.21198 14.8635 6.23523 14.3123 6.36048 13.7543C6.60648 12.684 7.23573 11.6415 7.63848 10.9882C7.74348 10.926 7.67373 11.1255 7.22823 11.9655C6.83298 12.7155 6.08748 14.4615 7.10598 15.8168C7.14513 14.827 7.365 13.8527 7.75473 12.942C8.31648 11.6648 9.49698 9.43875 9.59073 7.67325C9.63798 7.71225 9.80598 7.8105 9.87948 7.8765C10.0947 8.00925 10.2582 8.20875 10.4697 8.3415C10.6805 8.54025 10.946 8.6775 11.345 8.6775C11.384 8.68125 11.4192 8.68125 11.4537 8.68125C11.864 8.68125 12.185 8.5485 12.4497 8.415C12.7385 8.27775 12.974 8.079 13.1915 8.013H13.1952C13.6602 7.88025 14.0315 7.61025 14.2385 7.31325L14.2377 7.31175ZM16.4255 16.2698C16.4645 16.8705 16.7697 17.5155 17.3082 17.6475C17.894 17.7803 18.7415 17.3153 19.097 16.8825L19.3077 16.8743C19.6235 16.866 19.886 16.8825 20.1545 17.1405L20.1582 17.1442C20.3652 17.343 20.4635 17.6752 20.549 18.0195C20.6352 18.4215 20.7012 18.8003 20.9592 19.0853C21.443 19.6125 21.6035 19.9913 21.596 20.226C21.5802 20.487 21.4077 20.6198 21.0957 20.8193C20.4665 21.222 19.3497 21.5303 18.6387 22.3905C18.0207 23.1285 17.2677 23.5305 16.6025 23.5815C15.9387 23.6362 15.3642 23.3828 15.0282 22.6838L15.0245 22.68C14.8137 22.281 14.9037 21.6562 15.0792 20.9918C15.2555 20.3235 15.509 19.6448 15.5442 19.0935C15.5795 18.3787 15.6185 17.7577 15.7355 17.2762C15.8562 16.8113 16.0445 16.479 16.3805 16.296L16.4232 16.272L16.4255 16.2698ZM5.60898 16.32H5.62098C5.67573 16.32 5.72673 16.3237 5.77698 16.3358C6.15198 16.3905 6.48423 16.668 6.80073 17.0858L7.71048 18.75L7.71423 18.7537C7.95648 19.2847 8.46798 19.8158 8.90148 20.391C9.33573 20.988 9.67173 21.5228 9.63273 21.9608V21.969C9.57348 22.7108 9.15198 23.1128 8.50773 23.262C7.86273 23.3948 6.98748 23.262 6.11298 22.797C5.14473 22.2622 3.99198 22.3283 3.25398 22.1947C2.88723 22.1287 2.64498 21.9915 2.53098 21.7927C2.42223 21.594 2.41773 21.1905 2.65623 20.562V20.559C2.77323 20.223 2.68848 19.8053 2.62923 19.4377C2.57448 19.0387 2.54748 18.7297 2.67198 18.4995C2.83173 18.1635 3.07023 18.1012 3.36273 17.9647C3.65598 17.832 4.00398 17.766 4.27698 17.496H4.28073V17.4923C4.53498 17.2275 4.72698 16.8953 4.94898 16.656C5.13723 16.4527 5.32773 16.32 5.60898 16.32ZM12.77 7.24575C12.3357 7.4445 11.8242 7.7805 11.2812 7.7805C10.7382 7.7805 10.3122 7.51575 10.004 7.3155C9.84798 7.17975 9.72273 7.04625 9.62898 6.9795C9.46473 6.8475 9.48423 6.64425 9.55473 6.64425C9.66348 6.65925 9.68373 6.78 9.75348 6.8475C9.85173 6.9135 9.96873 7.04625 10.1127 7.17975C10.406 7.3785 10.7967 7.64775 11.2805 7.64775C11.7657 7.64775 12.3357 7.3785 12.6792 7.17975C12.8742 7.047 13.124 6.8475 13.3272 6.71475C13.4832 6.5775 13.4765 6.44475 13.604 6.44475C13.733 6.4605 13.64 6.5775 13.46 6.777C13.2762 6.91425 12.995 7.113 12.7692 7.24575H12.77ZM11.6877 5.66025V5.6415C11.684 5.62125 11.699 5.59875 11.7185 5.5905C11.7882 5.54775 11.8977 5.56275 11.9765 5.59425C12.0387 5.59425 12.1362 5.66025 12.1287 5.73C12.1205 5.77725 12.0425 5.79675 11.9915 5.79675C11.9375 5.79675 11.8977 5.754 11.8512 5.727C11.8002 5.71125 11.702 5.71875 11.687 5.66025H11.6877ZM11.1365 5.66025C11.1162 5.7195 11.0225 5.71125 10.9722 5.727C10.925 5.754 10.886 5.79675 10.8312 5.79675C10.7802 5.79675 10.6985 5.7765 10.694 5.727C10.6872 5.66025 10.7802 5.59425 10.8432 5.59425C10.925 5.562 11.0262 5.547 11.1042 5.5905C11.12 5.59875 11.1402 5.62125 11.132 5.6415V5.66025H11.1365Z" fill="white"/>
</g>
<defs>
<clipPath id="clip0">
<rect width="24" height="24" fill="white"/>
</clipPath>
</defs>
</svg>
