<svg width="158" height="50" viewBox="0 0 158 50" fill="none" xmlns="http://www.w3.org/2000/svg">
<path fill-rule="evenodd" clip-rule="evenodd" d="M3.143 1.42847H154.857C155.8 1.42847 156.572 2.1999 156.572 3.14275V46.857C156.572 47.7999 155.8 48.5713 154.857 48.5713H3.143C2.20014 48.5713 1.42871 47.7999 1.42871 46.857V3.14275C1.42871 2.1999 2.20014 1.42847 3.143 1.42847Z" fill="white" stroke="#CDCDCD"/>
<path d="M24.1431 25.6856V16.6856L30.3145 19.4284L24.1431 25.6856ZM12.3145 37.5141L19.9431 23.2856L23.2859 26.6284L12.3145 37.5141ZM8.02881 10.5999L23.6288 16.257V26.1999L8.02881 10.5999Z" fill="#82BEA0"/>
<path d="M33.4858 16.2571H24.4858L36.0573 21.4857L33.4858 16.2571Z" fill="#FA6441"/>
<path d="M49.0925 11.2067H50.0902V14.5393C50.0079 14.5667 49.8879 14.5976 49.7302 14.6319C49.5793 14.6661 49.401 14.7004 49.1953 14.7347C48.9965 14.769 48.777 14.7964 48.537 14.817C48.297 14.8444 48.0536 14.8581 47.8068 14.8581C47.3062 14.8581 46.8502 14.7759 46.4388 14.6113C46.0273 14.4467 45.6742 14.2067 45.3793 13.8913C45.0845 13.5759 44.8548 13.1884 44.6902 12.729C44.5325 12.2696 44.4536 11.7416 44.4536 11.145C44.4536 10.5484 44.5428 10.0204 44.721 9.56099C44.9062 9.09471 45.153 8.70385 45.4616 8.38842C45.7702 8.07299 46.1302 7.83299 46.5416 7.66842C46.9599 7.50385 47.4056 7.42156 47.8788 7.42156C48.201 7.42156 48.4856 7.44214 48.7325 7.48328C48.9862 7.52442 49.2022 7.57242 49.3805 7.62728C49.5588 7.68214 49.7028 7.73699 49.8125 7.79185C49.929 7.84671 50.0079 7.88785 50.049 7.91528L49.7302 8.74842C49.5313 8.61814 49.2673 8.51185 48.9382 8.42957C48.609 8.34042 48.273 8.29585 47.9302 8.29585C47.5668 8.29585 47.2342 8.36099 46.9325 8.49128C46.6376 8.62157 46.3839 8.81014 46.1713 9.05699C45.9656 9.30385 45.8045 9.60557 45.6879 9.96214C45.5713 10.3119 45.513 10.7061 45.513 11.145C45.513 11.5701 45.561 11.9576 45.657 12.3073C45.7599 12.657 45.9108 12.9587 46.1096 13.2124C46.3153 13.4593 46.5656 13.6513 46.8605 13.7884C47.1622 13.9256 47.5153 13.9941 47.9199 13.9941C48.2079 13.9941 48.4513 13.9804 48.6502 13.953C48.8559 13.9187 49.0033 13.8879 49.0925 13.8604V11.2067Z" fill="#111111"/>
<path d="M51.2923 12.0501C51.2923 11.577 51.3609 11.1656 51.498 10.8159C51.6352 10.4593 51.8169 10.1644 52.0432 9.93128C52.2695 9.69814 52.53 9.52328 52.8249 9.40671C53.1198 9.29014 53.4215 9.23185 53.73 9.23185C54.45 9.23185 55.002 9.45814 55.386 9.91071C55.77 10.3564 55.962 11.0387 55.962 11.9576C55.962 11.9987 55.962 12.0536 55.962 12.1221C55.962 12.1839 55.9586 12.2421 55.9518 12.297H52.29C52.3312 12.8524 52.4923 13.2741 52.7735 13.5621C53.0546 13.8501 53.4935 13.9941 54.09 13.9941C54.426 13.9941 54.7072 13.9667 54.9335 13.9119C55.1666 13.8501 55.3415 13.7919 55.458 13.737L55.5918 14.5393C55.4752 14.601 55.2695 14.6661 54.9746 14.7347C54.6866 14.8033 54.3575 14.8376 53.9872 14.8376C53.5209 14.8376 53.1163 14.769 52.7735 14.6319C52.4375 14.4879 52.1598 14.2924 51.9403 14.0456C51.7209 13.7987 51.5563 13.5073 51.4466 13.1713C51.3438 12.8284 51.2923 12.4547 51.2923 12.0501ZM54.9643 11.5256C54.9712 11.0936 54.8615 10.7404 54.6352 10.4661C54.4158 10.185 54.1106 10.0444 53.7198 10.0444C53.5003 10.0444 53.3049 10.089 53.1335 10.1781C52.9689 10.2604 52.8283 10.3701 52.7118 10.5073C52.5952 10.6444 52.5026 10.8021 52.434 10.9804C52.3723 11.1587 52.3312 11.3404 52.3106 11.5256H54.9643Z" fill="#111111"/>
<path d="M58.231 9.36556H60.2573V10.1679H58.231V12.6364C58.231 12.9039 58.2516 13.1267 58.2927 13.305C58.3339 13.4764 58.3956 13.6136 58.4779 13.7164C58.5602 13.8124 58.663 13.881 58.7864 13.9221C58.9099 13.9633 59.0539 13.9839 59.2184 13.9839C59.5064 13.9839 59.7362 13.953 59.9076 13.8913C60.0859 13.8227 60.2093 13.7747 60.2779 13.7473L60.463 14.5393C60.367 14.5873 60.199 14.6456 59.959 14.7141C59.719 14.7896 59.4447 14.8273 59.1361 14.8273C58.7727 14.8273 58.471 14.7827 58.231 14.6936C57.9979 14.5976 57.8093 14.457 57.6653 14.2719C57.5213 14.0867 57.4184 13.8604 57.3567 13.593C57.3019 13.3187 57.2744 13.0033 57.2744 12.6467V7.87414L58.231 7.70956V9.36556Z" fill="#111111"/>
<path d="M64.8117 14.7141H63.8551V9.36556H64.8117V14.7141ZM64.3283 8.39871C64.1568 8.39871 64.0094 8.34385 63.886 8.23414C63.7694 8.11757 63.7111 7.96328 63.7111 7.77128C63.7111 7.57928 63.7694 7.42842 63.886 7.31871C64.0094 7.20214 64.1568 7.14385 64.3283 7.14385C64.4997 7.14385 64.6437 7.20214 64.7603 7.31871C64.8837 7.42842 64.9454 7.57928 64.9454 7.77128C64.9454 7.96328 64.8837 8.11757 64.7603 8.23414C64.6437 8.34385 64.4997 8.39871 64.3283 8.39871Z" fill="#111111"/>
<path d="M67.3515 9.36556H69.3778V10.1679H67.3515V12.6364C67.3515 12.9039 67.3721 13.1267 67.4133 13.305C67.4544 13.4764 67.5161 13.6136 67.5984 13.7164C67.6807 13.8124 67.7835 13.881 67.907 13.9221C68.0304 13.9633 68.1744 13.9839 68.339 13.9839C68.627 13.9839 68.8567 13.953 69.0281 13.8913C69.2064 13.8227 69.3298 13.7747 69.3984 13.7473L69.5835 14.5393C69.4875 14.5873 69.3195 14.6456 69.0795 14.7141C68.8395 14.7896 68.5653 14.8273 68.2567 14.8273C67.8933 14.8273 67.5915 14.7827 67.3515 14.6936C67.1184 14.5976 66.9298 14.457 66.7858 14.2719C66.6418 14.0867 66.539 13.8604 66.4773 13.593C66.4224 13.3187 66.395 13.0033 66.395 12.6467V7.87414L67.3515 7.70956V9.36556Z" fill="#111111"/>
<path d="M75.0637 6.73242C75.3448 6.73242 75.5848 6.75299 75.7837 6.79414C75.9894 6.83528 76.1334 6.87299 76.2157 6.90728L76.0408 7.73014C75.9585 7.68899 75.8419 7.65128 75.6911 7.61699C75.5402 7.57585 75.3551 7.55528 75.1357 7.55528C74.6899 7.55528 74.3779 7.67871 74.1997 7.92557C74.0214 8.16557 73.9322 8.49128 73.9322 8.90271V9.36556H75.9894V10.1679H73.9322V14.7141H72.9757V8.88214C72.9757 8.19642 73.1437 7.66842 73.4797 7.29814C73.8157 6.92099 74.3437 6.73242 75.0637 6.73242Z" fill="#111111"/>
<path d="M78.9182 9.25242C79.0004 9.25242 79.093 9.25928 79.1959 9.27299C79.3056 9.27985 79.4119 9.29357 79.5147 9.31414C79.6176 9.32785 79.7102 9.34499 79.7924 9.36556C79.8816 9.37928 79.9467 9.39299 79.9879 9.40671L79.8233 10.2399C79.7479 10.2124 79.621 10.1816 79.4427 10.1473C79.2713 10.1061 79.0484 10.0856 78.7742 10.0856C78.5959 10.0856 78.4176 10.1061 78.2393 10.1473C78.0679 10.1816 77.9547 10.2056 77.8999 10.2193V14.7141H76.9433V9.59185C77.1696 9.50957 77.4507 9.43414 77.7867 9.36556C78.1227 9.29014 78.4999 9.25242 78.9182 9.25242Z" fill="#111111"/>
<path d="M85.6321 12.0399C85.6321 12.465 85.5704 12.849 85.4469 13.1919C85.3235 13.5347 85.1486 13.8296 84.9224 14.0764C84.7029 14.3233 84.4389 14.5153 84.1304 14.6524C83.8218 14.7827 83.4858 14.8479 83.1224 14.8479C82.7589 14.8479 82.4229 14.7827 82.1144 14.6524C81.8058 14.5153 81.5384 14.3233 81.3121 14.0764C81.0926 13.8296 80.9212 13.5347 80.7978 13.1919C80.6744 12.849 80.6126 12.465 80.6126 12.0399C80.6126 11.6216 80.6744 11.241 80.7978 10.8981C80.9212 10.5484 81.0926 10.2501 81.3121 10.0033C81.5384 9.75642 81.8058 9.56785 82.1144 9.43757C82.4229 9.30042 82.7589 9.23185 83.1224 9.23185C83.4858 9.23185 83.8218 9.30042 84.1304 9.43757C84.4389 9.56785 84.7029 9.75642 84.9224 10.0033C85.1486 10.2501 85.3235 10.5484 85.4469 10.8981C85.5704 11.241 85.6321 11.6216 85.6321 12.0399ZM84.6344 12.0399C84.6344 11.4364 84.4972 10.9599 84.2229 10.6101C83.9555 10.2536 83.5886 10.0753 83.1224 10.0753C82.6561 10.0753 82.2858 10.2536 82.0115 10.6101C81.7441 10.9599 81.6104 11.4364 81.6104 12.0399C81.6104 12.6433 81.7441 13.1233 82.0115 13.4799C82.2858 13.8296 82.6561 14.0044 83.1224 14.0044C83.5886 14.0044 83.9555 13.8296 84.2229 13.4799C84.4972 13.1233 84.6344 12.6433 84.6344 12.0399Z" fill="#111111"/>
<path d="M86.9779 9.51985C87.1973 9.46499 87.4853 9.40671 87.8419 9.34499C88.2053 9.28328 88.6236 9.25242 89.0967 9.25242C89.4396 9.25242 89.7276 9.30042 89.9607 9.39642C90.1939 9.48557 90.3893 9.61928 90.547 9.79757C90.595 9.76328 90.6705 9.71528 90.7733 9.65357C90.8762 9.59185 91.003 9.53357 91.1539 9.47871C91.3047 9.41699 91.4728 9.36557 91.6579 9.32442C91.843 9.27642 92.0419 9.25242 92.2545 9.25242C92.6659 9.25242 93.0019 9.31414 93.2625 9.43757C93.523 9.55414 93.7253 9.72214 93.8693 9.94157C94.0202 10.161 94.1196 10.4216 94.1676 10.7233C94.2225 11.025 94.2499 11.3541 94.2499 11.7107V14.7141H93.2933V11.9164C93.2933 11.601 93.2762 11.3301 93.2419 11.1039C93.2145 10.8776 93.1562 10.689 93.067 10.5381C92.9847 10.3873 92.8682 10.2776 92.7173 10.209C92.5733 10.1336 92.3847 10.0959 92.1516 10.0959C91.8293 10.0959 91.5619 10.1404 91.3493 10.2296C91.1436 10.3119 91.003 10.3873 90.9276 10.4559C90.9825 10.6341 91.0236 10.8296 91.051 11.0421C91.0785 11.2547 91.0922 11.4776 91.0922 11.7107V14.7141H90.1356V11.9164C90.1356 11.601 90.1185 11.3301 90.0842 11.1039C90.0499 10.8776 89.9882 10.689 89.899 10.5381C89.8167 10.3873 89.7002 10.2776 89.5493 10.209C89.4053 10.1336 89.2202 10.0959 88.9939 10.0959C88.8979 10.0959 88.795 10.0993 88.6853 10.1061C88.5756 10.113 88.4693 10.1233 88.3665 10.137C88.2705 10.1439 88.1813 10.1541 88.099 10.1679C88.0168 10.1816 87.9619 10.1919 87.9345 10.1987V14.7141H86.9779V9.51985Z" fill="#111111"/>
<path d="M99.1127 9.36556H101.139V10.1679H99.1127V12.6364C99.1127 12.9039 99.1333 13.1267 99.1744 13.305C99.2156 13.4764 99.2773 13.6136 99.3596 13.7164C99.4418 13.8124 99.5447 13.881 99.6681 13.9221C99.7916 13.9633 99.9356 13.9839 100.1 13.9839C100.388 13.9839 100.618 13.953 100.789 13.8913C100.968 13.8227 101.091 13.7747 101.16 13.7473L101.345 14.5393C101.249 14.5873 101.081 14.6456 100.841 14.7141C100.601 14.7896 100.326 14.8273 100.018 14.8273C99.6544 14.8273 99.3527 14.7827 99.1127 14.6936C98.8796 14.5976 98.691 14.457 98.547 14.2719C98.403 14.0867 98.3001 13.8604 98.2384 13.593C98.1836 13.3187 98.1561 13.0033 98.1561 12.6467V7.87414L99.1127 7.70956V9.36556Z" fill="#111111"/>
<path d="M102.356 14.7141V6.89699L103.313 6.73242V9.46842C103.491 9.39985 103.68 9.34842 103.879 9.31414C104.084 9.27299 104.287 9.25242 104.485 9.25242C104.911 9.25242 105.264 9.31414 105.545 9.43757C105.826 9.55414 106.049 9.72214 106.213 9.94157C106.385 10.1541 106.505 10.4113 106.573 10.713C106.642 11.0147 106.676 11.3473 106.676 11.7107V14.7141H105.72V11.9164C105.72 11.5873 105.696 11.3061 105.648 11.073C105.607 10.8399 105.535 10.6513 105.432 10.5073C105.329 10.3633 105.192 10.2604 105.02 10.1987C104.849 10.1301 104.636 10.0959 104.383 10.0959C104.28 10.0959 104.173 10.1027 104.064 10.1164C103.954 10.1301 103.848 10.1473 103.745 10.1679C103.649 10.1816 103.56 10.1987 103.477 10.2193C103.402 10.2399 103.347 10.257 103.313 10.2707V14.7141H102.356Z" fill="#111111"/>
<path d="M107.934 12.0501C107.934 11.577 108.003 11.1656 108.14 10.8159C108.277 10.4593 108.459 10.1644 108.685 9.93128C108.911 9.69814 109.172 9.52328 109.467 9.40671C109.761 9.29014 110.063 9.23185 110.372 9.23185C111.092 9.23185 111.644 9.45814 112.028 9.91071C112.412 10.3564 112.604 11.0387 112.604 11.9576C112.604 11.9987 112.604 12.0536 112.604 12.1221C112.604 12.1839 112.6 12.2421 112.593 12.297H108.932C108.973 12.8524 109.134 13.2741 109.415 13.5621C109.696 13.8501 110.135 13.9941 110.732 13.9941C111.068 13.9941 111.349 13.9667 111.575 13.9119C111.808 13.8501 111.983 13.7919 112.1 13.737L112.233 14.5393C112.117 14.601 111.911 14.6661 111.616 14.7347C111.328 14.8033 110.999 14.8376 110.629 14.8376C110.163 14.8376 109.758 14.769 109.415 14.6319C109.079 14.4879 108.801 14.2924 108.582 14.0456C108.363 13.7987 108.198 13.5073 108.088 13.1713C107.986 12.8284 107.934 12.4547 107.934 12.0501ZM111.606 11.5256C111.613 11.0936 111.503 10.7404 111.277 10.4661C111.058 10.185 110.752 10.0444 110.361 10.0444C110.142 10.0444 109.947 10.089 109.775 10.1781C109.611 10.2604 109.47 10.3701 109.354 10.5073C109.237 10.6444 109.144 10.8021 109.076 10.9804C109.014 11.1587 108.973 11.3404 108.952 11.5256H111.606Z" fill="#111111"/>
<path d="M48.9384 33.8662C51.023 33.8662 52.0653 33.153 52.0653 31.7267C52.0653 31.2879 51.9693 30.9176 51.7773 30.6159C51.599 30.3004 51.3521 30.033 51.0367 29.8136C50.7213 29.5804 50.3578 29.3816 49.9464 29.217C49.5487 29.0524 49.1236 28.8879 48.671 28.7233C48.1498 28.545 47.6561 28.3462 47.1898 28.1267C46.7236 27.8936 46.319 27.6262 45.9761 27.3244C45.6333 27.009 45.359 26.6387 45.1533 26.2136C44.9613 25.7884 44.8653 25.2742 44.8653 24.6707C44.8653 23.4227 45.2904 22.449 46.1407 21.7496C46.991 21.0502 48.1636 20.7004 49.6584 20.7004C50.5224 20.7004 51.3041 20.7964 52.0036 20.9884C52.7167 21.1667 53.2378 21.3656 53.567 21.585L52.9293 23.2102C52.6413 23.0319 52.2093 22.8604 51.6333 22.6959C51.071 22.5176 50.4127 22.4284 49.6584 22.4284C49.2744 22.4284 48.9178 22.4696 48.5887 22.5519C48.2596 22.6342 47.9716 22.7576 47.7247 22.9222C47.4778 23.0867 47.279 23.2993 47.1281 23.5599C46.991 23.8067 46.9224 24.1016 46.9224 24.4444C46.9224 24.8284 46.9978 25.1507 47.1487 25.4113C47.2996 25.6719 47.5121 25.905 47.7864 26.1107C48.0607 26.3027 48.3761 26.481 48.7327 26.6456C49.103 26.8102 49.5076 26.9747 49.9464 27.1393C50.5636 27.3862 51.1258 27.633 51.6333 27.8799C52.1544 28.1267 52.6001 28.4216 52.9704 28.7644C53.3544 29.1073 53.6493 29.5187 53.855 29.9987C54.0607 30.465 54.1636 31.0342 54.1636 31.7062C54.1636 32.9542 53.7041 33.9142 52.7853 34.5862C51.8801 35.2582 50.5978 35.5942 48.9384 35.5942C48.3761 35.5942 47.855 35.553 47.375 35.4707C46.9087 35.4022 46.4904 35.3199 46.1201 35.2239C45.7498 35.1142 45.4276 35.0044 45.1533 34.8947C44.8927 34.7713 44.687 34.6684 44.5361 34.5862L45.1327 32.9404C45.4481 33.1187 45.9281 33.3176 46.5727 33.537C47.2173 33.7564 48.0058 33.8662 48.9384 33.8662Z" fill="#111111"/>
<path d="M56.4517 24.897C56.8905 24.7873 57.4734 24.6707 58.2002 24.5473C58.9271 24.4239 59.7637 24.3622 60.7099 24.3622C61.5602 24.3622 62.2665 24.4856 62.8288 24.7324C63.3911 24.9656 63.8368 25.3016 64.1659 25.7404C64.5088 26.1656 64.7488 26.6799 64.8859 27.2833C65.0231 27.8867 65.0917 28.5519 65.0917 29.2787V35.2856H63.1785V29.6902C63.1785 29.0319 63.1305 28.4696 63.0345 28.0033C62.9522 27.537 62.8082 27.1599 62.6025 26.8719C62.3968 26.5839 62.1225 26.3782 61.7797 26.2547C61.4368 26.1176 61.0117 26.049 60.5042 26.049C60.2985 26.049 60.0859 26.0559 59.8665 26.0696C59.6471 26.0833 59.4345 26.1039 59.2288 26.1313C59.0368 26.145 58.8585 26.1656 58.6939 26.193C58.5431 26.2204 58.4334 26.241 58.3648 26.2547V35.2856H56.4517V24.897Z" fill="#111111"/>
<path d="M71.8847 33.9073C72.3373 33.9073 72.735 33.9004 73.0779 33.8867C73.4344 33.8593 73.7293 33.8182 73.9624 33.7633V30.5747C73.8253 30.5062 73.599 30.4513 73.2836 30.4102C72.9819 30.3553 72.6116 30.3279 72.1727 30.3279C71.8847 30.3279 71.5762 30.3484 71.247 30.3896C70.9316 30.4307 70.6367 30.5199 70.3624 30.657C70.1019 30.7804 69.8824 30.9587 69.7042 31.1919C69.5259 31.4113 69.4367 31.7062 69.4367 32.0764C69.4367 32.7622 69.6562 33.2422 70.095 33.5164C70.5339 33.777 71.1304 33.9073 71.8847 33.9073ZM71.7201 24.321C72.4882 24.321 73.1327 24.4239 73.6539 24.6296C74.1887 24.8216 74.6139 25.1027 74.9293 25.473C75.2584 25.8296 75.4916 26.2616 75.6287 26.769C75.7659 27.2627 75.8344 27.8113 75.8344 28.4147V35.1004C75.6699 35.1279 75.4367 35.169 75.135 35.2239C74.847 35.265 74.5179 35.3062 74.1476 35.3473C73.7773 35.3884 73.3727 35.4227 72.9339 35.4502C72.5087 35.4913 72.0836 35.5119 71.6584 35.5119C71.055 35.5119 70.4996 35.4502 69.9922 35.3267C69.4847 35.2033 69.0459 35.0113 68.6756 34.7507C68.3053 34.4764 68.0173 34.1199 67.8116 33.681C67.6059 33.2422 67.503 32.7142 67.503 32.097C67.503 31.5073 67.6196 30.9999 67.8527 30.5747C68.0996 30.1496 68.4287 29.8067 68.8402 29.5462C69.2516 29.2856 69.7316 29.0936 70.2802 28.9702C70.8287 28.8467 71.4047 28.785 72.0082 28.785C72.2002 28.785 72.399 28.7987 72.6047 28.8262C72.8104 28.8399 73.0024 28.8673 73.1807 28.9084C73.3727 28.9359 73.5373 28.9633 73.6744 28.9907C73.8116 29.0182 73.9076 29.0387 73.9624 29.0524V28.5176C73.9624 28.2022 73.9282 27.8936 73.8596 27.5919C73.791 27.2764 73.6676 27.0022 73.4893 26.769C73.311 26.5222 73.0642 26.3302 72.7487 26.193C72.447 26.0422 72.0493 25.9667 71.5556 25.9667C70.9247 25.9667 70.3693 26.0147 69.8893 26.1107C69.423 26.193 69.0733 26.2822 68.8402 26.3782L68.6139 24.7942C68.8607 24.6844 69.2722 24.5816 69.8482 24.4856C70.4242 24.3759 71.0482 24.321 71.7201 24.321Z" fill="#111111"/>
<path d="M86.4382 29.9576C86.4382 28.7096 86.1296 27.7496 85.5125 27.0776C84.8953 26.4056 84.0725 26.0696 83.0439 26.0696C82.4679 26.0696 82.0154 26.0902 81.6862 26.1313C81.3708 26.1724 81.1171 26.2204 80.9251 26.2753V33.0227C81.1582 33.2147 81.4942 33.3999 81.9331 33.5782C82.3719 33.7564 82.8519 33.8456 83.3731 33.8456C83.9216 33.8456 84.3879 33.7496 84.7719 33.5576C85.1696 33.3519 85.4919 33.0776 85.7388 32.7347C85.9856 32.3782 86.1639 31.9667 86.2736 31.5004C86.3834 31.0204 86.4382 30.5062 86.4382 29.9576ZM88.4336 29.9576C88.4336 30.7667 88.3239 31.5142 88.1045 32.1999C87.8988 32.8856 87.5902 33.4753 87.1788 33.969C86.7673 34.4627 86.2599 34.8467 85.6565 35.121C85.0668 35.3953 84.3879 35.5324 83.6199 35.5324C83.0028 35.5324 82.4542 35.4502 81.9742 35.2856C81.5079 35.121 81.1582 34.9633 80.9251 34.8124V39.0913H79.0119V24.9176C79.4645 24.8079 80.0268 24.6913 80.6988 24.5679C81.3845 24.4307 82.1731 24.3622 83.0645 24.3622C83.8873 24.3622 84.6279 24.4924 85.2862 24.753C85.9445 25.0136 86.5068 25.3839 86.9731 25.8639C87.4394 26.3439 87.7959 26.9336 88.0428 27.633C88.3033 28.3187 88.4336 29.0936 88.4336 29.9576Z" fill="#111111"/>
<path d="M99.3223 33.8662C101.407 33.8662 102.449 33.153 102.449 31.7267C102.449 31.2879 102.353 30.9176 102.161 30.6159C101.983 30.3004 101.736 30.033 101.421 29.8136C101.105 29.5804 100.742 29.3816 100.33 29.217C99.9326 29.0524 99.5075 28.8879 99.0549 28.7233C98.5338 28.545 98.0401 28.3462 97.5738 28.1267C97.1075 27.8936 96.7029 27.6262 96.3601 27.3244C96.0172 27.009 95.7429 26.6387 95.5372 26.2136C95.3452 25.7884 95.2492 25.2742 95.2492 24.6707C95.2492 23.4227 95.6744 22.449 96.5246 21.7496C97.3749 21.0502 98.5475 20.7004 100.042 20.7004C100.906 20.7004 101.688 20.7964 102.387 20.9884C103.101 21.1667 103.622 21.3656 103.951 21.585L103.313 23.2102C103.025 23.0319 102.593 22.8604 102.017 22.6959C101.455 22.5176 100.797 22.4284 100.042 22.4284C99.6583 22.4284 99.3018 22.4696 98.9726 22.5519C98.6435 22.6342 98.3555 22.7576 98.1086 22.9222C97.8618 23.0867 97.6629 23.2993 97.5121 23.5599C97.3749 23.8067 97.3063 24.1016 97.3063 24.4444C97.3063 24.8284 97.3818 25.1507 97.5326 25.4113C97.6835 25.6719 97.8961 25.905 98.1703 26.1107C98.4446 26.3027 98.7601 26.481 99.1166 26.6456C99.4869 26.8102 99.8915 26.9747 100.33 27.1393C100.947 27.3862 101.51 27.633 102.017 27.8799C102.538 28.1267 102.984 28.4216 103.354 28.7644C103.738 29.1073 104.033 29.5187 104.239 29.9987C104.445 30.465 104.547 31.0342 104.547 31.7062C104.547 32.9542 104.088 33.9142 103.169 34.5862C102.264 35.2582 100.982 35.5942 99.3223 35.5942C98.7601 35.5942 98.2389 35.553 97.7589 35.4707C97.2926 35.4022 96.8743 35.3199 96.5041 35.2239C96.1338 35.1142 95.8115 35.0044 95.5372 34.8947C95.2766 34.7713 95.0709 34.6684 94.9201 34.5862L95.5166 32.9404C95.8321 33.1187 96.3121 33.3176 96.9566 33.537C97.6012 33.7564 98.3898 33.8662 99.3223 33.8662Z" fill="#111111"/>
<path d="M108.625 24.5884H112.678V26.193H108.625V31.1302C108.625 31.665 108.666 32.1107 108.749 32.4673C108.831 32.8102 108.954 33.0844 109.119 33.2902C109.284 33.4822 109.489 33.6193 109.736 33.7016C109.983 33.7839 110.271 33.825 110.6 33.825C111.176 33.825 111.636 33.7633 111.978 33.6399C112.335 33.5027 112.582 33.4067 112.719 33.3519L113.089 34.9359C112.897 35.0319 112.561 35.1484 112.081 35.2856C111.601 35.4364 111.053 35.5119 110.436 35.5119C109.709 35.5119 109.105 35.4227 108.625 35.2444C108.159 35.0524 107.782 34.7713 107.494 34.401C107.206 34.0307 107 33.5782 106.877 33.0433C106.767 32.4947 106.712 31.8639 106.712 31.1507V21.6056L108.625 21.2764V24.5884Z" fill="#111111"/>
<path d="M124.273 29.937C124.273 30.7873 124.15 31.5553 123.903 32.241C123.656 32.9267 123.307 33.5164 122.854 34.0102C122.415 34.5039 121.887 34.8879 121.27 35.1622C120.653 35.4227 119.981 35.553 119.254 35.553C118.527 35.553 117.855 35.4227 117.238 35.1622C116.621 34.8879 116.086 34.5039 115.633 34.0102C115.195 33.5164 114.852 32.9267 114.605 32.241C114.358 31.5553 114.235 30.7873 114.235 29.937C114.235 29.1004 114.358 28.3393 114.605 27.6536C114.852 26.9542 115.195 26.3576 115.633 25.8639C116.086 25.3702 116.621 24.993 117.238 24.7324C117.855 24.4582 118.527 24.321 119.254 24.321C119.981 24.321 120.653 24.4582 121.27 24.7324C121.887 24.993 122.415 25.3702 122.854 25.8639C123.307 26.3576 123.656 26.9542 123.903 27.6536C124.15 28.3393 124.273 29.1004 124.273 29.937ZM122.278 29.937C122.278 28.7302 122.004 27.777 121.455 27.0776C120.92 26.3644 120.187 26.0079 119.254 26.0079C118.321 26.0079 117.581 26.3644 117.032 27.0776C116.497 27.777 116.23 28.7302 116.23 29.937C116.23 31.1439 116.497 32.1039 117.032 32.817C117.581 33.5164 118.321 33.8662 119.254 33.8662C120.187 33.8662 120.92 33.5164 121.455 32.817C122.004 32.1039 122.278 31.1439 122.278 29.937Z" fill="#111111"/>
<path d="M130.915 24.3622C131.079 24.3622 131.264 24.3759 131.47 24.4033C131.69 24.417 131.902 24.4444 132.108 24.4856C132.314 24.513 132.499 24.5473 132.663 24.5884C132.842 24.6159 132.972 24.6433 133.054 24.6707L132.725 26.337C132.574 26.2822 132.32 26.2204 131.964 26.1519C131.621 26.0696 131.175 26.0284 130.627 26.0284C130.27 26.0284 129.914 26.0696 129.557 26.1519C129.214 26.2204 128.988 26.2684 128.878 26.2959V35.2856H126.965V25.041C127.418 24.8764 127.98 24.7256 128.652 24.5884C129.324 24.4376 130.078 24.3622 130.915 24.3622Z" fill="#111111"/>
<path d="M134.304 29.9576C134.304 29.0113 134.441 28.1884 134.715 27.489C134.989 26.7759 135.353 26.1862 135.805 25.7199C136.258 25.2536 136.779 24.9039 137.369 24.6707C137.959 24.4376 138.562 24.321 139.179 24.321C140.619 24.321 141.723 24.7736 142.491 25.6787C143.259 26.5702 143.643 27.9347 143.643 29.7724C143.643 29.8547 143.643 29.9644 143.643 30.1016C143.643 30.225 143.636 30.3416 143.623 30.4513H136.299C136.381 31.5622 136.704 32.4056 137.266 32.9816C137.828 33.5576 138.706 33.8456 139.899 33.8456C140.571 33.8456 141.133 33.7907 141.586 33.681C142.052 33.5576 142.402 33.441 142.635 33.3313L142.903 34.9359C142.669 35.0593 142.258 35.1896 141.668 35.3267C141.092 35.4639 140.434 35.5324 139.693 35.5324C138.761 35.5324 137.952 35.3953 137.266 35.121C136.594 34.833 136.039 34.4422 135.6 33.9484C135.161 33.4547 134.832 32.8719 134.612 32.1999C134.407 31.5142 134.304 30.7667 134.304 29.9576ZM141.648 28.9084C141.661 28.0444 141.442 27.3382 140.989 26.7896C140.551 26.2273 139.94 25.9462 139.159 25.9462C138.72 25.9462 138.329 26.0353 137.986 26.2136C137.657 26.3782 137.376 26.5976 137.143 26.8719C136.909 27.1462 136.724 27.4616 136.587 27.8182C136.464 28.1747 136.381 28.5382 136.34 28.9084H141.648Z" fill="#111111"/>
</svg>
