<svg width="32" height="32" viewBox="0 0 32 32" fill="none" xmlns="http://www.w3.org/2000/svg">
<g clip-path="url(#clip0)">
<path d="M14.781 28.125H2.34375e-05L14.781 10.281V28.125ZM32 28.125H17.219C17.2509 26.1858 18.0436 24.3369 19.4263 22.9768C20.8089 21.6168 22.6706 20.8546 24.61 20.8546C26.5494 20.8546 28.4112 21.6168 29.7938 22.9768C31.1764 24.3369 31.9691 26.1858 32.001 28.125H32ZM17.219 21.719V3.875H32L17.219 21.719ZM14.781 3.875C14.7491 5.81416 13.9564 7.66311 12.5738 9.02316C11.1912 10.3832 9.32944 11.1454 7.39002 11.1454C5.4506 11.1454 3.58887 10.3832 2.20626 9.02316C0.823644 7.66311 0.0309235 5.81416 -0.000976562 3.875H14.781Z" fill="white"/>
</g>
<defs>
<clipPath id="clip0">
<rect width="32" height="32" fill="white"/>
</clipPath>
</defs>
</svg>
