<svg width="132" height="48" viewBox="0 0 132 48" fill="none" xmlns="http://www.w3.org/2000/svg">
<path d="M131.665 0.35376H0.352051V47.6615H131.665V0.35376Z" fill="black"/>
<path d="M0.6875 0.692308H131.312V47.3077H0.6875V0.692308ZM0 48H132V0H0V48Z" fill="#D2D2D2"/>
<path d="M23.5738 10.554H10.771V23.4463H23.5738V10.554Z" fill="#F25022"/>
<path d="M37.7056 10.554H24.9028V23.4463H37.7056V10.554Z" fill="#7FBA00"/>
<path d="M23.5738 24.7693H10.771V37.6616H23.5738V24.7693Z" fill="#00A4EF"/>
<path d="M37.7056 24.7693H24.9028V37.6616H37.7056V24.7693Z" fill="#FFB900"/>
<path d="M62.3794 25.077C62.3794 24.6924 62.5169 24.3847 62.7919 24.1231C63.0669 23.8616 63.3877 23.7385 63.7697 23.7385C64.1669 23.7385 64.503 23.877 64.7627 24.1385C65.0225 24.4001 65.16 24.7231 65.16 25.077C65.16 25.4462 65.0225 25.7693 64.7475 26.0154C64.4725 26.277 64.1516 26.4001 63.7544 26.4001C63.3572 26.4001 63.0363 26.277 62.7613 26.0154C62.5169 25.7539 62.3794 25.4462 62.3794 25.077ZM64.9002 37.6616H62.6238V27.8924H64.9002V37.6616Z" fill="white"/>
<path d="M71.8363 35.9847C72.1724 35.9847 72.5544 35.9078 72.9669 35.7539C73.3794 35.6001 73.746 35.3847 74.0974 35.1232V37.2616C73.7308 37.477 73.3183 37.6309 72.8599 37.7385C72.4016 37.8462 71.8822 37.9078 71.3322 37.9078C69.9113 37.9078 68.7502 37.4462 67.8488 36.5385C66.9475 35.6309 66.5044 34.4616 66.5044 33.0616C66.5044 31.4924 66.9627 30.2001 67.8794 29.1847C68.7961 28.1693 70.0794 27.6616 71.7599 27.6616C72.1877 27.6616 72.6155 27.7232 73.0585 27.8309C73.5016 27.9385 73.8377 28.077 74.0974 28.2155V30.4155C73.746 30.1539 73.3794 29.9539 73.0127 29.8155C72.646 29.677 72.2641 29.6001 71.8822 29.6001C70.9808 29.6001 70.2627 29.8924 69.6974 30.477C69.1474 31.0616 68.8724 31.8616 68.8724 32.8616C68.8724 33.8462 69.1322 34.6155 69.6669 35.1693C70.2016 35.7232 70.9197 35.9847 71.8363 35.9847Z" fill="white"/>
<path d="M80.5906 27.7385C80.7739 27.7385 80.9419 27.7539 81.0794 27.7693C81.2169 27.8001 81.3544 27.8308 81.4461 27.8616V30.1847C81.3239 30.0924 81.1558 30.0154 80.9267 29.9385C80.6975 29.8616 80.4225 29.8154 80.0864 29.8154C79.5211 29.8154 79.0475 30.0462 78.6655 30.5231C78.2836 31.0001 78.085 31.7231 78.085 32.7231V37.6616H75.8086V27.8924H78.085V29.4308H78.1155C78.3294 28.8924 78.635 28.477 79.0628 28.1847C79.4905 27.8924 79.9947 27.7385 80.5906 27.7385Z" fill="white"/>
<path d="M81.5684 32.9232C81.5684 31.3078 82.0267 30.0309 82.9281 29.077C83.8295 28.1385 85.0975 27.6616 86.7017 27.6616C88.2142 27.6616 89.4058 28.1232 90.2614 29.0309C91.117 29.9385 91.5447 31.1693 91.5447 32.7078C91.5447 34.2924 91.0864 35.5539 90.185 36.4924C89.2836 37.4309 88.0461 37.8924 86.4878 37.8924C84.9906 37.8924 83.7836 37.4462 82.9128 36.5539C82.0114 35.677 81.5684 34.4616 81.5684 32.9232ZM83.9517 32.8462C83.9517 33.8616 84.1809 34.6462 84.6392 35.1847C85.0975 35.7232 85.7545 35.9847 86.61 35.9847C87.435 35.9847 88.0767 35.7232 88.5045 35.1847C88.9322 34.6462 89.1614 33.8462 89.1614 32.7847C89.1614 31.7385 88.9322 30.9385 88.4892 30.4001C88.0461 29.8616 87.4045 29.6001 86.5947 29.6001C85.7545 29.6001 85.1128 29.877 84.6392 30.4462C84.1809 31.0155 83.9517 31.8001 83.9517 32.8462Z" fill="white"/>
<path d="M94.9363 30.4616C94.9363 30.7847 95.0433 31.0462 95.2419 31.2309C95.4558 31.4155 95.9141 31.6462 96.6169 31.9386C97.5336 32.3078 98.1752 32.7232 98.5419 33.1847C98.9085 33.6462 99.0919 34.2001 99.0919 34.8462C99.0919 35.7693 98.7405 36.5078 98.0377 37.0616C97.3349 37.6155 96.3877 37.8924 95.1961 37.8924C94.7988 37.8924 94.3558 37.8462 93.8669 37.7386C93.378 37.6462 92.9655 37.5078 92.6294 37.3693V35.1078C93.0419 35.4001 93.4849 35.6309 93.9738 35.8001C94.4474 35.9693 94.8905 36.0616 95.2724 36.0616C95.7919 36.0616 96.1738 35.9847 96.4183 35.8462C96.6627 35.7078 96.7849 35.4616 96.7849 35.1078C96.7849 34.7847 96.6627 34.5232 96.403 34.3078C96.1433 34.0924 95.6697 33.8309 94.9516 33.5539C94.1113 33.2001 93.5155 32.8001 93.1641 32.3539C92.8127 31.9078 92.6294 31.3386 92.6294 30.6616C92.6294 29.7847 92.9808 29.0616 93.6683 28.4924C94.3558 27.9232 95.2572 27.6462 96.3724 27.6462C96.7085 27.6462 97.0905 27.677 97.5183 27.7539C97.946 27.8309 98.2974 27.9232 98.5724 28.0462V30.2309C98.2669 30.0309 97.9155 29.8616 97.5183 29.7078C97.121 29.5693 96.7086 29.4924 96.3266 29.4924C95.8988 29.4924 95.5474 29.5847 95.3183 29.7539C95.0586 29.9232 94.9363 30.1693 94.9363 30.4616Z" fill="white"/>
<path d="M100.1 32.9232C100.1 31.3078 100.558 30.0309 101.46 29.077C102.361 28.1385 103.629 27.6616 105.233 27.6616C106.746 27.6616 107.938 28.1232 108.793 29.0309C109.649 29.9385 110.076 31.1693 110.076 32.7078C110.076 34.2924 109.618 35.5539 108.717 36.4924C107.815 37.4309 106.578 37.8924 105.02 37.8924C103.522 37.8924 102.315 37.4462 101.445 36.5539C100.543 35.677 100.1 34.4616 100.1 32.9232ZM102.468 32.8462C102.468 33.8616 102.697 34.6462 103.156 35.1847C103.614 35.7232 104.271 35.9847 105.126 35.9847C105.951 35.9847 106.593 35.7232 107.021 35.1847C107.449 34.6462 107.678 33.8462 107.678 32.7847C107.678 31.7385 107.449 30.9385 107.006 30.4001C106.563 29.8616 105.921 29.6001 105.111 29.6001C104.271 29.6001 103.629 29.877 103.156 30.4462C102.697 31.0155 102.468 31.8001 102.468 32.8462Z" fill="white"/>
<path d="M117.609 29.7846V34.8C117.609 35.8461 117.853 36.6154 118.327 37.1384C118.8 37.6615 119.534 37.9077 120.496 37.9077C120.817 37.9077 121.153 37.8769 121.489 37.8C121.825 37.7231 122.07 37.6615 122.207 37.5692V35.6615C122.07 35.7538 121.902 35.8308 121.718 35.8923C121.535 35.9538 121.367 35.9846 121.245 35.9846C120.786 35.9846 120.435 35.8615 120.221 35.6154C120.007 35.3692 119.9 34.9384 119.9 34.3384V29.7692H122.222V27.8923H119.916V25L117.624 25.7077V27.9077H114.217V26.7231C114.217 26.1384 114.339 25.6923 114.599 25.3846C114.859 25.0769 115.225 24.9385 115.699 24.9385C115.943 24.9385 116.157 24.9692 116.356 25.0308C116.539 25.0923 116.677 25.1538 116.753 25.2V23.2154C116.585 23.1538 116.402 23.1231 116.188 23.0923C115.974 23.0615 115.729 23.0461 115.454 23.0461C114.416 23.0461 113.56 23.3692 112.903 24.0308C112.246 24.6923 111.91 25.5231 111.91 26.5538V27.9077H110.291V29.7846H111.91V37.6769H114.217V29.7846H117.609Z" fill="white"/>
<path d="M60.4239 24.0308V37.6615H58.0711V26.9846H58.0405L53.8391 37.6615H52.2808L47.9725 26.9846H47.9419V37.6615H45.7725V24.0308H49.1336L53.0294 34.1385H53.0905L57.2002 24.0308H60.4239Z" fill="white"/>
<path d="M51.9447 18.1384C51.135 18.5999 50.2183 18.8307 49.1947 18.8307C48.4156 18.8307 47.7281 18.6614 47.117 18.3076C46.5211 17.9691 46.0475 17.4768 45.7267 16.8461C45.4058 16.2153 45.2378 15.5076 45.2378 14.723C45.2378 13.8922 45.4211 13.1384 45.7725 12.4922C46.1239 11.8461 46.6281 11.323 47.285 10.9537C47.942 10.5845 48.6753 10.3999 49.5003 10.3999C49.9128 10.3999 50.3253 10.4461 50.7378 10.523C51.1503 10.5999 51.4864 10.7076 51.7461 10.8307V12.0614C51.135 11.6461 50.3558 11.4461 49.4086 11.4461C48.8433 11.4461 48.3392 11.5845 47.8808 11.8614C47.4225 12.1384 47.0711 12.523 46.8267 12.9999C46.5822 13.4922 46.46 14.0461 46.46 14.6614C46.46 15.6307 46.7197 16.3999 47.2239 16.9691C47.7281 17.5384 48.4308 17.8153 49.317 17.8153C49.8822 17.8153 50.3864 17.7076 50.8142 17.4768V15.3691H49.0878V14.3538H51.9447V18.1384Z" fill="white"/>
<path d="M58.5295 16.0924H54.5267C54.542 16.677 54.7253 17.1231 55.0309 17.4462C55.3517 17.7539 55.7642 17.9231 56.2836 17.9231C56.9711 17.9231 57.567 17.7231 58.0864 17.3231V18.3078C57.8573 18.4616 57.567 18.6001 57.2156 18.6924C56.8642 18.7847 56.4975 18.8308 56.1309 18.8308C55.26 18.8308 54.5725 18.5693 54.0989 18.0462C53.6253 17.5231 53.3809 16.7847 53.3809 15.8308C53.3809 15.2462 53.5031 14.7078 53.7323 14.2462C53.9614 13.7693 54.2975 13.4001 54.71 13.1385C55.1225 12.877 55.5961 12.7385 56.1003 12.7385C56.8489 12.7385 57.4448 12.9847 57.8725 13.477C58.3003 13.9693 58.5142 14.6462 58.5142 15.5231V16.0924H58.5295ZM57.4142 15.2154C57.4142 14.7078 57.292 14.3231 57.0628 14.0616C56.8336 13.8001 56.5128 13.6616 56.085 13.6616C55.7031 13.6616 55.367 13.8001 55.0767 14.077C54.7864 14.3539 54.6184 14.7385 54.5267 15.2154H57.4142Z" fill="white"/>
<path d="M62.868 18.6307C62.7611 18.6923 62.6236 18.7384 62.425 18.7692C62.2416 18.8 62.0736 18.8154 61.9208 18.8154C60.8514 18.8154 60.3166 18.2154 60.3166 17.0307V13.8H59.3389V12.8769H60.3166V11.4923L61.4319 11.1384V12.8615H62.8527V13.7846H61.4319V16.8307C61.4319 17.2154 61.493 17.4923 61.6152 17.6461C61.7375 17.8 61.9514 17.8769 62.2722 17.8769C62.4861 17.8769 62.6847 17.8154 62.8527 17.6923V18.6307H62.868Z" fill="white"/>
<path d="M68.3987 10.8154C68.3987 11 68.3376 11.1538 68.2001 11.2923C68.0626 11.4307 67.8945 11.4923 67.6959 11.4923C67.4973 11.4923 67.3293 11.4307 67.1918 11.2923C67.0543 11.1692 66.9932 11 66.9932 10.8C66.9932 10.6 67.0696 10.4307 67.207 10.3077C67.3445 10.1846 67.5126 10.1077 67.6959 10.1077C67.8793 10.1077 68.0473 10.1692 68.1848 10.3077C68.3376 10.4615 68.3987 10.6154 68.3987 10.8154ZM68.2459 18.6923H67.1307V12.8769H68.2459V18.6923Z" fill="white"/>
<path d="M73.0892 18.6307C72.9823 18.6923 72.8448 18.7384 72.6462 18.7692C72.4628 18.8 72.2948 18.8154 72.142 18.8154C71.0726 18.8154 70.5378 18.2154 70.5378 17.0307V13.8H69.5601V12.8769H70.5378V11.4923L71.6531 11.1384V12.8615H73.0739V13.7846H71.6531V16.8307C71.6531 17.2154 71.7142 17.4923 71.8364 17.6461C71.9587 17.8 72.1725 17.8769 72.4934 17.8769C72.7073 17.8769 72.9059 17.8154 73.0739 17.6923V18.6307H73.0892Z" fill="white"/>
<path d="M80.392 11.0308C80.2086 10.9385 80.01 10.8769 79.7809 10.8769C79.1545 10.8769 78.8489 11.2615 78.8489 12.0308V12.8616H80.1628V13.7846H78.8489V18.6769H77.7336V13.8H76.7559V12.8769H77.7336V11.9846C77.7336 11.3692 77.9017 10.8769 78.2531 10.5077C78.6045 10.1385 79.0781 9.95386 79.6892 9.95386C79.9947 9.95386 80.2239 9.98463 80.4072 10.0616V11.0308H80.392Z" fill="white"/>
<path d="M84.5015 14.0001C84.4404 13.9539 84.3182 13.9077 84.1654 13.8616C84.0126 13.8308 83.8751 13.8001 83.7682 13.8001C83.3709 13.8001 83.0501 13.9847 82.8057 14.3385C82.5612 14.6924 82.439 15.1539 82.439 15.7231V18.6924H81.3237V12.877H82.439V14.0462H82.4696C82.5918 13.6462 82.7904 13.3385 83.0501 13.1077C83.3098 12.877 83.6154 12.7693 83.9515 12.7693C84.1807 12.7693 84.364 12.8001 84.4862 12.8462V14.0001H84.5015Z" fill="white"/>
<path d="M90.8726 15.7539C90.8726 16.6924 90.5976 17.4462 90.0629 18.0001C89.5281 18.5539 88.8101 18.8308 87.924 18.8308C87.0531 18.8308 86.3504 18.5539 85.8309 18.0154C85.3115 17.477 85.0518 16.7539 85.0518 15.8462C85.0518 14.877 85.3268 14.1231 85.8615 13.5693C86.3962 13.0154 87.1295 12.7385 88.0615 12.7385C88.9323 12.7385 89.6198 13.0001 90.1087 13.5385C90.6281 14.077 90.8726 14.8154 90.8726 15.7539ZM89.7268 15.7847C89.7268 15.0924 89.574 14.5693 89.2837 14.2154C88.9781 13.8616 88.5656 13.677 88.0156 13.677C87.4656 13.677 87.0226 13.8616 86.7018 14.2462C86.3809 14.6154 86.2281 15.1539 86.2281 15.8308C86.2281 16.4924 86.3809 17.0001 86.7018 17.3693C87.0226 17.7385 87.4504 17.9231 88.0156 17.9231C88.5809 17.9231 89.0087 17.7385 89.299 17.3847C89.574 17.0001 89.7268 16.477 89.7268 15.7847Z" fill="white"/>
<path d="M100.849 18.6924H99.7334V15.3847C99.7334 14.7847 99.6418 14.3539 99.4584 14.077C99.2751 13.8001 98.9543 13.677 98.5112 13.677C98.1445 13.677 97.8237 13.8462 97.5793 14.1847C97.3195 14.5231 97.1973 14.9385 97.1973 15.4001V18.6924H96.0821V15.277C96.0821 14.2155 95.6696 13.677 94.8598 13.677C94.4779 13.677 94.1571 13.8462 93.9126 14.1693C93.6682 14.4924 93.5459 14.9078 93.5459 15.4155V18.7078H92.4307V12.877H93.5459V13.7847H93.5612C93.9737 13.077 94.5848 12.7385 95.364 12.7385C95.7307 12.7385 96.0668 12.8462 96.3723 13.0462C96.6626 13.2462 96.8765 13.5385 97.014 13.9078C97.2432 13.5078 97.5029 13.2155 97.8237 13.0155C98.1445 12.8308 98.5112 12.7231 98.939 12.7231C100.207 12.7231 100.833 13.5078 100.833 15.0924V18.6924H100.849Z" fill="white"/>
</svg>
